<svg width="50" height="50" viewBox="0 0 50 50" fill="none" xmlns="http://www.w3.org/2000/svg">
<rect width="50" height="50" rx="25" fill="#0E9EBE"/>
<path d="M32.727 22.3024C31.1014 22.1751 29.5395 22.1626 28.0388 22.1614C28.0294 21.3727 27.9977 20.6031 27.9437 19.8527C27.8803 18.9718 27.8487 18.1825 27.8483 17.4839C27.9011 16.4718 27.6321 15.4688 27.0797 14.6189L27.0588 14.5867L27.0333 14.5581C26.7991 14.2962 26.5111 14.0881 26.1889 13.948C25.8694 13.8091 25.5239 13.7404 25.1756 13.7465C24.8453 13.7428 24.5157 13.778 24.1936 13.8513C23.7997 13.9109 23.4428 14.1177 23.195 14.4304L23.195 14.4303L23.1903 14.4365C22.925 14.7821 22.7284 15.1753 22.611 15.5949L22.6109 15.5949L22.6085 15.6043C22.4453 16.2348 22.3571 16.8824 22.3457 17.5335C22.327 17.7805 22.3018 18.0474 22.2757 18.323C22.216 18.9549 22.1519 19.6328 22.1519 20.2217V20.2266V20.2314V20.2363V20.2411V20.246V20.2508V20.2557V20.2605V20.2654V20.2702V20.2751V20.2799V20.2848V20.2896V20.2945V20.2993V20.3042V20.309V20.3139V20.3187V20.3236V20.3284V20.3333V20.3382V20.343V20.3479V20.3527V20.3576V20.3624V20.3673V20.3721V20.377V20.3819V20.3867V20.3916V20.3964V20.4013V20.4061V20.411V20.4159V20.4207V20.4256V20.4304V20.4353V20.4402V20.445V20.4499V20.4547V20.4596V20.4645V20.4693V20.4742V20.4791V20.4839V20.4888V20.4936V20.4985V20.5034V20.5082V20.5131V20.518V20.5228V20.5277V20.5326V20.5374V20.5423V20.5472V20.552V20.5569V20.5618V20.5666V20.5715V20.5764V20.5812V20.5861V20.591V20.5958V20.6007V20.6056V20.6104V20.6153V20.6202V20.625V20.6299V20.6348V20.6397V20.6445V20.6494V20.6543V20.6591V20.664V20.6689V20.6738V20.6786V20.6835V20.6884V20.6933V20.6981V20.703V20.7079V20.7128V20.7176V20.7225V20.7274V20.7323V20.7371V20.742V20.7469V20.7518V20.7567V20.7615V20.7664V20.7713V20.7762V20.7811V20.7859V20.7908V20.7957V20.8006V20.8055V20.8103V20.8152V20.8201V20.825V20.8299V20.8348V20.8396V20.8445V20.8494V20.8543V20.8592V20.8641V20.8689V20.8738V20.8787V20.8836V20.8885V20.8934V20.8983V20.9032V20.908V20.9129V20.9178V20.9227V20.9276V20.9325V20.9374V20.9423V20.9472V20.952V20.9569V20.9618V20.9667V20.9716V20.9765V20.9814V20.9863V20.9912V20.9961V21.001V21.0059V21.0108V21.0157V21.0206V21.0254V21.0303V21.0352V21.0401V21.045V21.0499V21.0548V21.0597V21.0646V21.0695V21.0744V21.0793V21.0842V21.0891V21.094V21.0989V21.1038V21.1087V21.1136V21.1185V21.1234V21.1283V21.1332V21.1381V21.143V21.1479V21.1529V21.1578V21.1627V21.1676V21.1725V21.1774V21.1823V21.1872V21.1921V21.197V21.2019V21.2068V21.2117V21.2166V21.2215V21.2265V21.2314V21.2363V21.2412V21.2461V21.251V21.2559V21.2608V21.2657V21.2707V21.2756V21.2805V21.2854V21.2903V21.2952V21.3001V21.3051V21.31V21.3149V21.3198V21.3247V21.3296V21.3345V21.3395V21.3444V21.3493V21.3542V21.3591V21.3641V21.369V21.3739V21.3788V21.3837V21.3887V21.3936V21.3985V21.4034V21.4083V21.4133V21.4182V21.4231V21.428V21.433V21.4379V21.4428V21.4477V21.4527V21.4576V21.4625V21.4674V21.4724V21.4773V21.4822V21.4872V21.4921V21.497V21.5019V21.5069V21.5118V21.5167V21.5217V21.5266V21.5315V21.5365V21.5414V21.5463V21.5513V21.5562V21.5611V21.5661V21.571V21.5759V21.5809V21.5858V21.5907V21.5957V21.6006V21.6055V21.6105V21.6154V21.6204V21.6253V21.6302V21.6352V21.6401V21.6451V21.65V21.6549V21.6599V21.6648V21.6698V21.6747V21.6797V21.6846V21.6895V21.6945V21.6994V21.7044V21.7093V21.7143V21.7192V21.7242V21.7291V21.734V21.739V21.7439V21.7489V21.7538V21.7588V21.7637V21.7687V21.7736V21.7786V21.7835V21.7885V21.7934V21.7984V21.8034V21.8083V21.8133V21.8182V21.8232V21.8281V21.8331V21.838V21.843V21.8479V21.8529V21.8579V21.8628V21.8678V21.8727V21.8777V21.8827V21.8876V21.8926V21.8975V21.9025V21.9075V21.9124V21.9174V21.9223V21.9273V21.9323V21.9372V21.9422V21.9472V21.9521V21.9571V21.9621V21.967V21.972V21.977V21.9819V21.9869V21.9919V21.9968V22.0018V22.0068V22.0117V22.0167V22.0217V22.0267V22.0316V22.0366V22.0416V22.0465V22.0515V22.0565V22.0615V22.0664V22.0714V22.0764V22.0814V22.0864V22.0913V22.0963V22.1013V22.1063V22.1112V22.1162V22.1212V22.1262V22.1312V22.1361V22.1411V22.1461V22.1511V22.1561V22.1611V22.166V22.171V22.176V22.181V22.186V22.191V22.1959V22.2009V22.2059V22.2109V22.2159V22.2209V22.2259V22.2309V22.2358V22.2408V22.2458V22.2472H21.0722H21.0696H21.0671H21.0646H21.0621H21.0596H21.0571H21.0545H21.052H21.0495H21.047H21.0445H21.042H21.0395H21.037H21.0344H21.0319H21.0294H21.0269H21.0244H21.0219H21.0194H21.0169H21.0144H21.0119H21.0094H21.0068H21.0043H21.0018H20.9993H20.9968H20.9943H20.9918H20.9893H20.9868H20.9843H20.9818H20.9793H20.9768H20.9743H20.9718H20.9693H20.9668H20.9643H20.9618H20.9593H20.9568H20.9543H20.9518H20.9493H20.9468H20.9443H20.9418H20.9394H20.9369H20.9344H20.9319H20.9294H20.9269H20.9244H20.9219H20.9194H20.9169H20.9144H20.912H20.9095H20.907H20.9045H20.902H20.8995H20.897H20.8945H20.8921H20.8896H20.8871H20.8846H20.8821H20.8796H20.8772H20.8747H20.8722H20.8697H20.8672H20.8648H20.8623H20.8598H20.8573H20.8548H20.8524H20.8499H20.8474H20.8449H20.8425H20.84H20.8375H20.835H20.8326H20.8301H20.8276H20.8251H20.8227H20.8202H20.8177H20.8153H20.8128H20.8103H20.8078H20.8054H20.8029H20.8004H20.798H20.7955H20.793H20.7906H20.7881H20.7856H20.7832H20.7807H20.7782H20.7758H20.7733H20.7709H20.7684H20.7659H20.7635H20.761H20.7585H20.7561H20.7536H20.7512H20.7487H20.7462H20.7438H20.7413H20.7389H20.7364H20.734H20.7315H20.7291H20.7266H20.7241H20.7217H20.7192H20.7168H20.7143H20.7119H20.7094H20.707H20.7045H20.7021H20.6996H20.6972H20.6947H20.6923H20.6898H20.6874H20.6849H20.6825H20.68H20.6776H20.6751H20.6727H20.6702H20.6678H20.6654H20.6629H20.6605H20.658H20.6556H20.6531H20.6507H20.6482H20.6458H20.6434H20.6409H20.6385H20.636H20.6336H20.6312H20.6287H20.6263H20.6239H20.6214H20.619H20.6165H20.6141H20.6117H20.6092H20.6068H20.6044H20.6019H20.5995H20.5971H20.5946H20.5922H20.5898H20.5873H20.5849H20.5825H20.58H20.5776H20.5752H20.5728H20.5703H20.5679H20.5655H20.563H20.5606H20.5582H20.5558H20.5533H20.5509H20.5485H20.5461H20.5436H20.5412H20.5388H20.5364H20.5339H20.5315H20.5291H20.5267H20.5242H20.5218H20.5194H20.517H20.5146H20.5121H20.5097H20.5073H20.5049H20.5025H20.5001H20.4976H20.4952H20.4928H20.4904H20.488H20.4856H20.4831H20.4807H20.4783H20.4759H20.4735H20.4711H20.4687H20.4662H20.4638H20.4614H20.459H20.4566H20.4542H20.4518H20.4494H20.447H20.4445H20.4421H20.4397H20.4373H20.4349H20.4325H20.4301H20.4277H20.4253H20.4229H20.4205H20.4181H20.4157H20.4133H20.4109H20.4085H20.4061H20.4036H20.4012H20.3988H20.3964H20.394H20.3916H20.3892H20.3868H20.3844H20.382H20.3796H20.3772H20.3748H20.3724H20.37H20.3676H20.3653H20.3629H20.3605H20.3581H20.3557H20.3533H20.3509H20.3485H20.3461H20.3437H20.3413H20.3389H20.3365H20.3341H20.3317H20.3293H20.3269H20.3246H20.3222H20.3198H20.3174H20.315H20.3126H20.3102H20.3078H20.3054H20.303H20.3007H20.2983H20.2959H20.2935H20.2911H20.2887H20.2863H20.284H20.2816H20.2792H20.2768H20.2744H20.272H20.2696H20.2673H20.2649H20.2625H20.2601H20.2577H20.2554H20.253H20.2506H20.2482H20.2458H20.2435H20.2411H20.2387H20.2363H20.2339H20.2316H20.2292H20.2268H20.2244H20.222H20.2197H20.2173H20.2149H20.2125H20.2102H20.2078H20.2054H20.203H20.2007H20.1983H20.1959H20.1936H20.1912H20.1888H20.1864H20.1841H20.1817H20.1793H20.177H20.1746H20.1722H20.1698H20.1675H20.1651H20.1627H20.1604H20.158H20.1556H20.1533H20.1509H20.1485H20.1462H20.1438H20.1414H20.1391H20.1367H20.1343H20.132H20.1296H20.1272H20.1249H20.1225H20.1201H20.1178H20.1154H20.1131H20.1107H20.1083H20.106H20.1036H20.1013H20.0989H20.0965H20.0942H20.0918H20.0895H20.0871H20.0847H20.0824H20.08H20.0777H20.0753H20.0729H20.0706H20.0682H20.0659H20.0635H20.0612H20.0588H20.0565H20.0541H20.0517H20.0494H20.047H20.0447H20.0423H20.04H20.0376H20.0353H20.0329H20.0306H20.0282H20.0259H20.0235H20.0212H20.0188H20.0165H20.0141H20.0118H20.0094H20.0071H20.0047H20.0024H20H19.9977H19.9953H19.993H19.9906H19.9883H19.9859H19.9836H19.9812H19.9789H19.9765H19.9742H19.9719H19.9695H19.9672H19.9648H19.9625H19.9601H19.9578H19.9554H19.9531H19.9508H19.9484H19.9461H19.9437H19.9414H19.939H19.9367H19.9344H19.932H19.9297H19.9273H19.925H19.9227H19.9203H19.918H19.9157H19.9133H19.911H19.9086H19.9063H19.904H19.9016H19.8993H19.897H19.8946H19.8923H19.8899H19.8876H19.8853H19.8829H19.8806H19.8783H19.8759H19.8736H19.8713H19.8689H19.8666H19.8643H19.8619H19.8596H19.8573H19.8549H19.8526H19.8503H19.8479H19.8456H19.8433H19.841H19.8386H19.8363H19.834H19.8316H19.8293H19.827H19.8246H19.8223H19.82H19.8177H19.8153H19.813H19.8107H19.8083H19.806H19.8037H19.8013H19.799H19.7967H19.7944H19.792H19.7897H19.7874H19.785H19.7827H19.7804H19.778H19.7757H19.7734H19.7711H19.7687H19.7664H19.7641H19.7617H19.7594H19.7571H19.7547H19.7524H19.7501H19.7478H19.7454H19.7431H19.7408H19.7384H19.7361H19.7338H19.7314H19.7291H19.7268H19.7245H19.7221H19.7198H19.7175H19.7151H19.7128H19.7105H19.7081H19.7058H19.7035H19.7012H19.6988H19.6965H19.6942H19.6918H19.6895H19.6872H19.6848H19.6825H19.6802H19.6779H19.6755H19.6732H19.6709H19.6685H19.6662H19.6639H19.6616H19.6592H19.6569H19.6546H19.6522H19.6499H19.6476H19.6452H19.6429H19.6406H19.6383H19.6359H19.6336H19.6313H19.6289H19.6266H19.6243H19.6219H19.6196H19.6173H19.615H19.6126H19.6103H19.608H19.6056H19.6033H19.601H19.5986H19.5963H19.594H19.5917H19.5893H19.587H19.5847H19.5823H19.58H19.5777H19.5753H19.573H19.5707H19.5684H19.566H19.5637H19.5614H19.559H19.5567H19.5544H19.552H19.5497H19.5474H19.5451H19.5427H19.5404H19.5381H19.5357H19.5334H19.5311H19.5287H19.5264H19.5241H19.5218H19.5194H19.5171H19.5148H19.5124H19.5101H19.5078H19.5055H19.5031H19.5008H19.4985H19.4961H19.4938H19.4915H19.4891H19.4868H19.4845H19.4822H19.4798H19.4775H19.4752H19.4728H19.4705H19.4682H19.4658H19.4635H19.4612H19.4589H19.4565H19.4542H19.4519H19.4495H19.4472H19.4449H19.4425H19.4402H19.4379H19.4356H19.4332H19.4309H19.4286H19.4262H19.4239H19.4216H19.4192H19.4169H19.4146H19.4123H19.4099H19.4076H19.4053H19.4029H19.4006H19.3983H19.3959H19.3936H19.3913H19.389H19.3866H19.3843H19.382H19.3796H19.3773H19.375H19.3726H19.3703H19.368H19.3657H19.3633H19.361H19.3587H19.3563H19.354H19.3517H19.3493H19.347H19.3447H19.3424H19.34H19.3377H19.3354H19.333H19.3307H19.3284H19.3261H19.3237H19.3214H19.3191H19.3167H19.3144H19.3121H19.3097H19.3074H19.3051H19.3028H19.3004H19.2981H19.2958H19.2934H19.2911H19.2888H19.2864H19.2841H19.2818H19.2795H19.2771H19.2748H19.2725H19.2701H19.2678H19.2655H19.2631H19.2608H19.2585H19.2562H19.2538H19.2515H19.2492H19.2468H19.2445H19.2422H19.2398H19.2375H19.2352H19.2329H19.2305H19.2282H19.2259H19.2235H19.2212H19.2189H19.2165H19.2142H19.2119H19.2096H19.2072H19.2049H19.2026H19.2002H19.1979H19.1956H19.1932H19.1909H19.1886H19.1863H19.1839H19.1816H19.1793H19.1769H19.1746H19.1723H19.17H19.1676H19.1653H19.163H19.1606H19.1583H19.156H19.1536H19.1513H19.149H19.1467H19.1443H19.142H19.1397H19.1373H19.135H19.1327H19.1303H19.128H19.1257H19.1234H19.121H19.1187H19.1164H19.114H19.1117H19.1094H19.107H19.1047H19.1024H19.1001H19.0977H19.0954H19.0931H19.0907H19.0884H19.0861H19.0837H19.0814H19.0791H19.0768H19.0744H19.0721H19.0698H19.0674H19.0651H19.0628H19.0604H19.0581H19.0558H19.0535H19.0511H19.0488H19.0465H19.0441H19.0418H19.0395H19.0371H19.0348H19.0325H19.0302H19.0278H19.0255H19.0232H19.0208H19.0185H19.0162H19.0138H19.0115H19.0092H19.0069H19.0045H19.0022H18.9999H18.9975H18.9952H18.9929H18.9906H18.9882H18.9859H18.9836H18.9812H18.9789H18.9766H18.9742H18.9719H18.9696H18.9673H18.9649H18.9626H18.9603H18.9579H18.9556H18.9533H18.9509H18.9486H18.9463H18.944H18.9416H18.9393H18.937H18.9346H18.9323H18.93H18.9276H18.9253H18.923H18.9207H18.9183H18.916H18.9137H18.9113H18.909H18.9067H18.9043H18.902H18.8997H18.8974H18.895H18.8927H18.8904H18.888H18.8857H18.8834H18.881H18.8787H18.8764H18.8741H18.8717H18.8694H18.8671H18.8647H18.8624H18.8601H18.8577H18.8554H18.8531H18.8508H18.8484H18.8461H18.8438H18.8414H18.8391H18.8368H18.8345H18.8321H18.8298H18.8275H18.8251H18.8228H18.8205H18.8181H18.8158H18.8135H18.8112H18.8088H18.8065H18.8042H18.8018H18.7995H18.7972H18.7948H18.7925H18.7902H18.7879H18.7855H18.7832H18.7809H18.7785H18.7762H18.7739H18.7715H18.7692H18.7669H18.7646H18.7622H18.7599H18.7576H18.7552H18.7529H18.7506H18.7482H18.7459H18.7436H18.7413H18.7389H18.7366H18.7343H18.7319H18.7296H18.7273H18.7249H18.7226H18.7203H18.718H18.7156H18.7133H18.711H18.7086H18.7063H18.704H18.7016H18.6993H18.697H18.6947H18.6923H18.69H18.6877H18.6853H18.683H18.6807H18.6783H18.676H18.6737H18.6714H18.669H18.6667H18.6644H18.662H18.6597H18.6574H18.6551H18.6527H18.6504H18.6481H18.6457H18.6434H18.6245L18.6057 22.2486L17.3268 22.3453L17.3268 22.3453L17.3227 22.3457C16.7272 22.3957 16.1408 22.5223 15.5778 22.7224C15.1769 22.8389 14.8042 23.0365 14.4828 23.3031C14.1756 23.5428 13.9567 23.8778 13.8606 24.2556C13.7825 24.5526 13.7445 24.8588 13.7478 25.1659C13.7187 25.7437 13.8639 26.3171 14.1648 26.8115L14.1906 26.854L14.2244 26.8906C14.6504 27.3524 15.2131 27.6655 15.8301 27.7841L15.8301 27.7841L15.8348 27.785C16.7106 27.9447 17.5984 28.0301 18.4886 28.0401C19.476 28.0886 20.7041 28.0935 22.1519 28.0939V30.3666V30.3862L22.1535 30.4057L22.2502 31.6415L22.2501 31.6415L22.2507 31.6478C22.2602 31.7517 22.2713 31.8549 22.2826 31.9593C22.3135 32.246 22.3454 32.5411 22.3454 32.8814V32.9074L22.3481 32.9332C22.4066 33.4953 22.5126 34.0515 22.6648 34.5958L22.6705 34.6163L22.678 34.6363C22.8241 35.0271 23.036 35.39 23.3044 35.7093C23.5256 35.9967 23.8286 36.2106 24.1737 36.3229L24.1932 36.3293L24.2133 36.3341C24.5251 36.4078 24.8445 36.4448 25.1649 36.4443C25.7435 36.4739 26.3178 36.3288 26.8129 36.0274L26.8325 36.0155L26.8509 36.0019C27.2972 35.6708 27.6109 35.1917 27.7359 34.6506C27.9267 33.9875 28.0295 33.3022 28.0414 32.6123C28.0954 31.8133 28.0954 30.8473 28.0954 29.7375V29.7218V27.9997C28.2493 28.0011 28.4018 28.0028 28.5529 28.0046C29.1658 28.0117 29.7567 28.0185 30.3331 27.9969C31.1894 27.9648 31.9924 27.9116 32.7421 27.8478C33.7685 27.8921 34.7825 27.6057 35.6344 27.0304L35.6625 27.0114L35.6878 26.9888C35.9497 26.7547 36.1579 26.4667 36.2979 26.1445C36.4369 25.825 36.5056 25.4794 36.4995 25.1311C36.5031 24.8008 36.4679 24.4712 36.3946 24.1492C36.335 23.7553 36.1283 23.3983 35.8156 23.1506L35.8156 23.1505L35.8108 23.1468C35.463 22.8781 35.0567 22.6953 34.625 22.6135C34.003 22.4528 33.3678 22.3486 32.727 22.3024ZM32.727 22.3024C32.7275 22.3024 32.728 22.3024 32.7284 22.3025L32.6894 22.8009M32.727 22.3024C32.7265 22.3023 32.7259 22.3023 32.7253 22.3022L32.6894 22.8009M32.6894 22.8009C30.9054 22.6612 29.1967 22.6612 27.5417 22.6612M32.6894 22.8009L27.5417 22.6612M27.5417 22.6612C27.5417 21.7084 27.5095 20.7841 27.445 19.8886C27.3805 18.993 27.3483 18.187 27.3483 17.4705C27.3985 16.5596 27.1576 15.6563 26.6605 14.8913L27.5417 22.6612Z" fill="white" stroke="white"/>
</svg>
