<svg width="17" height="17" viewBox="0 0 17 17" fill="none" xmlns="http://www.w3.org/2000/svg">
<path d="M13.8012 9.77567C13.2398 9.82379 12.6384 9.86388 11.9969 9.88794C11.5755 9.90374 11.1506 9.89878 10.6996 9.89352C10.464 9.89077 10.2212 9.88794 9.96803 9.88794V11.5479C9.96803 12.3899 9.96803 13.1036 9.92793 13.689C9.92029 14.1777 9.84747 14.6631 9.71142 15.1325C9.63954 15.4537 9.45453 15.7383 9.19017 15.9344C8.88193 16.122 8.52397 16.2115 8.16372 16.191C7.95043 16.1922 7.73776 16.1679 7.5302 16.1188C7.34181 16.0575 7.1767 15.94 7.05707 15.782C6.88158 15.5748 6.74322 15.3387 6.6481 15.0844C6.54018 14.6984 6.46507 14.3041 6.42356 13.9055C6.42356 13.6297 6.39666 13.3808 6.37303 13.1622C6.36506 13.0884 6.35746 13.018 6.35139 12.9513L6.27922 12.0291V9.96011C5.02823 9.96011 3.99376 9.96011 3.18382 9.92002C2.53823 9.91313 1.89438 9.85143 1.25922 9.73558C0.877152 9.66214 0.52866 9.46822 0.26485 9.18225C0.0772654 8.87402 -0.0122255 8.51605 0.00823672 8.1558C0.00504759 7.95563 0.0293314 7.75596 0.0804091 7.56239C0.131952 7.35838 0.250573 7.17763 0.417214 7.04916C0.621397 6.87874 0.859076 6.75307 1.11488 6.68028C1.50798 6.53955 1.91773 6.4506 2.33379 6.41565L3.28807 6.34347H4.1782H5.1004H6.27922V4.45897C6.27922 4.03735 6.32408 3.56338 6.36786 3.1009C6.3882 2.88606 6.4083 2.67371 6.42356 2.47022C6.4308 2.0101 6.49271 1.55247 6.608 1.10697C6.68274 0.83975 6.80795 0.58932 6.97688 0.369203C7.10571 0.206601 7.29254 0.100252 7.49813 0.0724941C7.71626 0.02166 7.93975 -0.00257386 8.16372 0.000321733C8.37197 -0.00407574 8.57871 0.036651 8.76973 0.119705C8.96076 0.202759 9.13154 0.326173 9.27036 0.481471C9.64133 1.05229 9.82108 1.72633 9.78359 2.40607C9.78359 2.94068 9.80764 3.54211 9.85576 4.21038C9.90387 4.87864 9.92793 5.56829 9.92793 6.27932C11.1629 6.27932 12.4379 6.27932 13.7691 6.38357C14.2294 6.41675 14.6857 6.49191 15.1324 6.60811C15.401 6.65714 15.654 6.76989 15.8701 6.93689C16.0327 7.06572 16.1391 7.25255 16.1668 7.45814C16.2177 7.67627 16.2419 7.89976 16.239 8.12373C16.2434 8.33198 16.2027 8.53872 16.1196 8.72974C16.0366 8.92076 15.9132 9.09155 15.7579 9.23037C15.1819 9.6193 14.4953 9.81067 13.8012 9.77567Z" fill="#333333"/>
<path d="M13.8012 9.77567C13.2398 9.82379 12.6384 9.86388 11.9969 9.88794C11.5755 9.90374 11.1506 9.89878 10.6996 9.89352C10.464 9.89077 10.2212 9.88794 9.96803 9.88794V11.5479C9.96803 12.3899 9.96803 13.1036 9.92793 13.689C9.92029 14.1777 9.84747 14.6631 9.71142 15.1325C9.63954 15.4537 9.45453 15.7383 9.19017 15.9344C8.88193 16.122 8.52397 16.2115 8.16372 16.191C7.95043 16.1922 7.73776 16.1679 7.5302 16.1188C7.34181 16.0575 7.1767 15.94 7.05707 15.782C6.88158 15.5748 6.74322 15.3387 6.6481 15.0844C6.54018 14.6984 6.46507 14.3041 6.42356 13.9055C6.42356 13.6297 6.39666 13.3808 6.37303 13.1622C6.36506 13.0884 6.35746 13.018 6.35139 12.9513L6.27922 12.0291V9.96011C5.02823 9.96011 3.99376 9.96011 3.18382 9.92002C2.53823 9.91313 1.89438 9.85143 1.25922 9.73558C0.877152 9.66214 0.52866 9.46822 0.26485 9.18225C0.0772654 8.87402 -0.0122255 8.51605 0.00823672 8.1558C0.00504759 7.95563 0.0293314 7.75596 0.0804091 7.56239C0.131952 7.35838 0.250573 7.17763 0.417214 7.04916C0.621397 6.87874 0.859076 6.75307 1.11488 6.68028C1.50798 6.53955 1.91773 6.4506 2.33379 6.41565L3.28807 6.34347H4.1782H5.1004H6.27922V4.45897C6.27922 4.03735 6.32408 3.56338 6.36786 3.1009C6.3882 2.88606 6.4083 2.67371 6.42356 2.47022C6.4308 2.0101 6.49271 1.55247 6.608 1.10697C6.68274 0.83975 6.80795 0.58932 6.97688 0.369203C7.10571 0.206601 7.29254 0.100252 7.49813 0.0724941C7.71626 0.02166 7.93975 -0.00257386 8.16372 0.000321733C8.37197 -0.00407574 8.57871 0.036651 8.76973 0.119705C8.96076 0.202759 9.13154 0.326173 9.27036 0.481471C9.64133 1.05229 9.82108 1.72633 9.78359 2.40607C9.78359 2.94068 9.80764 3.54211 9.85576 4.21038C9.90387 4.87864 9.92793 5.56829 9.92793 6.27932C11.1629 6.27932 12.4379 6.27932 13.7691 6.38357C14.2294 6.41675 14.6857 6.49191 15.1324 6.60811C15.401 6.65714 15.654 6.76989 15.8701 6.93689C16.0327 7.06572 16.1391 7.25255 16.1668 7.45814C16.2177 7.67627 16.2419 7.89976 16.239 8.12373C16.2434 8.33198 16.2027 8.53872 16.1196 8.72974C16.0366 8.92076 15.9132 9.09155 15.7579 9.23037C15.1819 9.6193 14.4953 9.81067 13.8012 9.77567Z" stroke="#333333"/>
</svg>
