<svg width="27" height="27" viewBox="0 0 27 27" fill="none" xmlns="http://www.w3.org/2000/svg">
<path d="M14.9326 25.1474L14.9522 25.1355L14.9705 25.1218C15.4562 24.7616 15.7973 24.2402 15.933 23.6514C16.144 22.9186 16.2575 22.1613 16.2706 21.3988C16.3306 20.5128 16.3306 19.4409 16.3306 18.2061V18.1904V16.2216C16.5214 16.2232 16.71 16.2254 16.8966 16.2275C17.5766 16.2354 18.2306 16.243 18.8695 16.219C19.821 16.1833 20.7134 16.1242 21.5463 16.0533C22.6759 16.1027 23.7918 15.788 24.7293 15.1549L24.7574 15.1359L24.7827 15.1133C25.0677 14.8586 25.2941 14.5452 25.4465 14.1946C25.5978 13.8467 25.6725 13.4705 25.6658 13.0913C25.6698 12.7277 25.631 12.365 25.5502 12.0106C25.4865 11.5862 25.264 11.2014 24.9271 10.9345L24.9271 10.9345L24.9223 10.9308C24.5424 10.6372 24.0985 10.4377 23.6269 10.3486C22.9387 10.1706 22.2357 10.0553 21.5266 10.0041C19.7033 9.8614 17.952 9.84875 16.2683 9.84763C16.2587 8.95352 16.2234 8.08154 16.1622 7.23174C16.0916 6.25167 16.0564 5.37307 16.056 4.59506C16.1144 3.48204 15.8188 2.37899 15.2113 1.44426L15.1904 1.4121L15.1648 1.38351C14.9101 1.09853 14.5967 0.872066 14.2462 0.71966C13.8983 0.568413 13.522 0.493661 13.1428 0.500421C12.7793 0.496373 12.4166 0.535155 12.0621 0.615953C11.6377 0.679665 11.2529 0.902223 10.986 1.2391L10.986 1.23906L10.9813 1.24519C10.6909 1.6235 10.4757 2.05392 10.3473 2.51318L10.3472 2.51315L10.3447 2.52258C10.1645 3.21927 10.0671 3.93478 10.0546 4.65427C10.0336 4.93137 10.0054 5.22981 9.9763 5.5374C9.91008 6.23805 9.83937 6.98617 9.83937 7.63771V7.6431V7.64849V7.65387V7.65926V7.66465V7.67003V7.67542V7.68081V7.6862V7.69159V7.69697V7.70236V7.70775V7.71314V7.71853V7.72392V7.72931V7.7347V7.74009V7.74549V7.75088V7.75627V7.76166V7.76705V7.77245V7.77784V7.78323V7.78863V7.79402V7.79941V7.80481V7.8102V7.8156V7.82099V7.82639V7.83178V7.83718V7.84258V7.84797V7.85337V7.85877V7.86417V7.86956V7.87496V7.88036V7.88576V7.89116V7.89656V7.90196V7.90736V7.91276V7.91816V7.92356V7.92896V7.93436V7.93976V7.94517V7.95057V7.95597V7.96138V7.96678V7.97218V7.97759V7.98299V7.98839V7.9938V7.99921V8.00461V8.01002V8.01542V8.02083V8.02624V8.03164V8.03705V8.04246V8.04787V8.05327V8.05868V8.06409V8.0695V8.07491V8.08032V8.08573V8.09114V8.09655V8.10196V8.10737V8.11279V8.1182V8.12361V8.12902V8.13444V8.13985V8.14526V8.15068V8.15609V8.16151V8.16692V8.17234V8.17775V8.18317V8.18859V8.194V8.19942V8.20484V8.21025V8.21567V8.22109V8.22651V8.23193V8.23735V8.24277V8.24819V8.25361V8.25903V8.26445V8.26987V8.27529V8.28071V8.28614V8.29156V8.29698V8.3024V8.30783V8.31325V8.31868V8.3241V8.32953V8.33495V8.34038V8.3458V8.35123V8.35666V8.36208V8.36751V8.37294V8.37837V8.3838V8.38922V8.39465V8.40008V8.40551V8.41094V8.41637V8.4218V8.42724V8.43267V8.4381V8.44353V8.44896V8.4544V8.45983V8.46526V8.4707V8.47613V8.48157V8.487V8.49244V8.49787V8.50331V8.50875V8.51418V8.51962V8.52506V8.5305V8.53594V8.54137V8.54681V8.55225V8.55769V8.56313V8.56857V8.57401V8.57946V8.5849V8.59034V8.59578V8.60122V8.60667V8.61211V8.61756V8.623V8.62844V8.63389V8.63933V8.64478V8.65023V8.65567V8.66112V8.66657V8.67201V8.67746V8.68291V8.68836V8.69381V8.69926V8.70471V8.71016V8.71561V8.72106V8.72651V8.73196V8.73741V8.74287V8.74832V8.75377V8.75923V8.76468V8.77014V8.77559V8.78104V8.7865V8.79196V8.79741V8.80287V8.80833V8.81378V8.81924V8.8247V8.83016V8.83562V8.84108V8.84654V8.852V8.85746V8.86292V8.86838V8.87384V8.8793V8.88477V8.89023V8.89569V8.90116V8.90662V8.91209V8.91755V8.92302V8.92848V8.93395V8.93942V8.94488V8.95035V8.95582V8.96129V8.96675V8.97222V8.97769V8.98316V8.98863V8.9941V8.99957V9.00505V9.01052V9.01599V9.02146V9.02694V9.03241V9.03788V9.04336V9.04883V9.05431V9.05978V9.06526V9.07074V9.07621V9.08169V9.08717V9.09265V9.09812V9.1036V9.10908V9.11456V9.12004V9.12552V9.131V9.13648V9.14197V9.14745V9.15293V9.15841V9.1639V9.16938V9.17487V9.18035V9.18584V9.19132V9.19681V9.20229V9.20778V9.21327V9.21876V9.22424V9.22973V9.23522V9.24071V9.2462V9.25169V9.25718V9.26267V9.26816V9.27366V9.27915V9.28464V9.29014V9.29563V9.30112V9.30662V9.31211V9.31761V9.3231V9.3286V9.3341V9.3396V9.34509V9.35059V9.35609V9.36159V9.36709V9.37259V9.37809V9.38359V9.38909V9.39459V9.40009V9.4056V9.4111V9.4166V9.42211V9.42761V9.43312V9.43862V9.44413V9.44963V9.45514V9.46065V9.46616V9.47166V9.47717V9.48268V9.48819V9.4937V9.49921V9.50472V9.51023V9.51574V9.52126V9.52677V9.53228V9.5378V9.54331V9.54882V9.55434V9.55985V9.56537V9.57089V9.5764V9.58192V9.58744V9.59296V9.59847V9.60399V9.60951V9.61503V9.62055V9.62607V9.6316V9.63712V9.64264V9.64816V9.65369V9.65921V9.66473V9.67026V9.67578V9.68131V9.68683V9.69236V9.69789V9.70342V9.70894V9.71447V9.72V9.72553V9.73106V9.73659V9.74212V9.74765V9.75318V9.75872V9.76425V9.76978V9.77532V9.78085V9.78639V9.79192V9.79746V9.80299V9.80853V9.81407V9.8196V9.82514V9.83068V9.83622V9.84176V9.8473V9.85284V9.85838V9.86392V9.86946V9.87501V9.88055V9.88609V9.89164V9.89718V9.90273V9.90827V9.91382V9.91936V9.92491V9.93046V9.93601V9.94156V9.94302H8.58456H8.58176H8.57897H8.57617H8.57337H8.57058H8.56778H8.56499H8.56219H8.5594H8.55661H8.55382H8.55102H8.54823H8.54544H8.54265H8.53986H8.53708H8.53429H8.5315H8.52871H8.52592H8.52314H8.52035H8.51757H8.51478H8.512H8.50922H8.50643H8.50365H8.50087H8.49809H8.49531H8.49253H8.48975H8.48697H8.48419H8.48141H8.47863H8.47585H8.47308H8.4703H8.46753H8.46475H8.46198H8.4592H8.45643H8.45366H8.45088H8.44811H8.44534H8.44257H8.4398H8.43703H8.43426H8.43149H8.42872H8.42595H8.42319H8.42042H8.41765H8.41489H8.41212H8.40936H8.40659H8.40383H8.40107H8.3983H8.39554H8.39278H8.39002H8.38726H8.3845H8.38174H8.37898H8.37622H8.37346H8.37071H8.36795H8.36519H8.36244H8.35968H8.35693H8.35417H8.35142H8.34866H8.34591H8.34316H8.3404H8.33765H8.3349H8.33215H8.3294H8.32665H8.3239H8.32115H8.31841H8.31566H8.31291H8.31016H8.30742H8.30467H8.30193H8.29918H8.29644H8.2937H8.29095H8.28821H8.28547H8.28273H8.27998H8.27724H8.2745H8.27176H8.26902H8.26629H8.26355H8.26081H8.25807H8.25534H8.2526H8.24986H8.24713H8.24439H8.24166H8.23892H8.23619H8.23346H8.23073H8.22799H8.22526H8.22253H8.2198H8.21707H8.21434H8.21161H8.20888H8.20615H8.20343H8.2007H8.19797H8.19525H8.19252H8.1898H8.18707H8.18435H8.18162H8.1789H8.17618H8.17345H8.17073H8.16801H8.16529H8.16257H8.15985H8.15713H8.15441H8.15169H8.14897H8.14625H8.14354H8.14082H8.1381H8.13539H8.13267H8.12995H8.12724H8.12453H8.12181H8.1191H8.11639H8.11367H8.11096H8.10825H8.10554H8.10283H8.10012H8.09741H8.0947H8.09199H8.08928H8.08657H8.08387H8.08116H8.07845H8.07575H8.07304H8.07034H8.06763H8.06493H8.06222H8.05952H8.05682H8.05411H8.05141H8.04871H8.04601H8.04331H8.04061H8.03791H8.03521H8.03251H8.02981H8.02711H8.02442H8.02172H8.01902H8.01632H8.01363H8.01093H8.00824H8.00554H8.00285H8.00016H7.99746H7.99477H7.99208H7.98939H7.98669H7.984H7.98131H7.97862H7.97593H7.97324H7.97055H7.96786H7.96518H7.96249H7.9598H7.95711H7.95443H7.95174H7.94906H7.94637H7.94369H7.941H7.93832H7.93563H7.93295H7.93027H7.92759H7.9249H7.92222H7.91954H7.91686H7.91418H7.9115H7.90882H7.90614H7.90346H7.90079H7.89811H7.89543H7.89275H7.89008H7.8874H7.88473H7.88205H7.87938H7.8767H7.87403H7.87135H7.86868H7.86601H7.86334H7.86066H7.85799H7.85532H7.85265H7.84998H7.84731H7.84464H7.84197H7.8393H7.83663H7.83397H7.8313H7.82863H7.82596H7.8233H7.82063H7.81797H7.8153H7.81264H7.80997H7.80731H7.80464H7.80198H7.79932H7.79666H7.79399H7.79133H7.78867H7.78601H7.78335H7.78069H7.77803H7.77537H7.77271H7.77005H7.7674H7.76474H7.76208H7.75942H7.75677H7.75411H7.75145H7.7488H7.74614H7.74349H7.74084H7.73818H7.73553H7.73287H7.73022H7.72757H7.72492H7.72227H7.71961H7.71696H7.71431H7.71166H7.70901H7.70636H7.70372H7.70107H7.69842H7.69577H7.69312H7.69048H7.68783H7.68518H7.68254H7.67989H7.67725H7.6746H7.67196H7.66931H7.66667H7.66403H7.66138H7.65874H7.6561H7.65346H7.65081H7.64817H7.64553H7.64289H7.64025H7.63761H7.63497H7.63233H7.62969H7.62706H7.62442H7.62178H7.61914H7.61651H7.61387H7.61123H7.6086H7.60596H7.60333H7.60069H7.59806H7.59542H7.59279H7.59016H7.58752H7.58489H7.58226H7.57963H7.57699H7.57436H7.57173H7.5691H7.56647H7.56384H7.56121H7.55858H7.55595H7.55332H7.5507H7.54807H7.54544H7.54281H7.54019H7.53756H7.53493H7.53231H7.52968H7.52706H7.52443H7.52181H7.51918H7.51656H7.51394H7.51131H7.50869H7.50607H7.50345H7.50082H7.4982H7.49558H7.49296H7.49034H7.48772H7.4851H7.48248H7.47986H7.47724H7.47462H7.47201H7.46939H7.46677H7.46415H7.46154H7.45892H7.4563H7.45369H7.45107H7.44846H7.44584H7.44323H7.44061H7.438H7.43539H7.43277H7.43016H7.42755H7.42493H7.42232H7.41971H7.4171H7.41449H7.41188H7.40927H7.40666H7.40405H7.40144H7.39883H7.39622H7.39361H7.391H7.38839H7.38579H7.38318H7.38057H7.37797H7.37536H7.37275H7.37015H7.36754H7.36494H7.36233H7.35973H7.35712H7.35452H7.35192H7.34931H7.34671H7.34411H7.3415H7.3389H7.3363H7.3337H7.3311H7.3285H7.3259H7.32329H7.32069H7.3181H7.3155H7.3129H7.3103H7.3077H7.3051H7.3025H7.2999H7.29731H7.29471H7.29211H7.28952H7.28692H7.28432H7.28173H7.27913H7.27654H7.27394H7.27135H7.26875H7.26616H7.26357H7.26097H7.25838H7.25579H7.25319H7.2506H7.24801H7.24542H7.24283H7.24024H7.23764H7.23505H7.23246H7.22987H7.22728H7.22469H7.22211H7.21952H7.21693H7.21434H7.21175H7.20916H7.20657H7.20399H7.2014H7.19881H7.19622H7.19363H7.19105H7.18846H7.18587H7.18328H7.1807H7.17811H7.17552H7.17293H7.17034H7.16775H7.16517H7.16258H7.15999H7.1574H7.15481H7.15223H7.14964H7.14705H7.14446H7.14187H7.13929H7.1367H7.13411H7.13152H7.12893H7.12635H7.12376H7.12117H7.11858H7.11599H7.11341H7.11082H7.10823H7.10564H7.10305H7.10047H7.09788H7.09529H7.0927H7.09011H7.08753H7.08494H7.08235H7.07976H7.07717H7.07459H7.072H7.06941H7.06682H7.06423H7.06165H7.05906H7.05647H7.05388H7.05129H7.04871H7.04612H7.04353H7.04094H7.03835H7.03577H7.03318H7.03059H7.028H7.02541H7.02283H7.02024H7.01765H7.01506H7.01247H7.00989H7.0073H7.00471H7.00212H6.99953H6.99695H6.99436H6.99177H6.98918H6.98659H6.98401H6.98142H6.97883H6.97624H6.97365H6.97107H6.96848H6.96589H6.9633H6.96071H6.95813H6.95554H6.95295H6.95036H6.94777H6.94519H6.9426H6.94001H6.93742H6.93483H6.93225H6.92966H6.92707H6.92448H6.92189H6.91931H6.91672H6.91413H6.91154H6.90895H6.90637H6.90378H6.90119H6.8986H6.89601H6.89343H6.89084H6.88825H6.88566H6.88307H6.88049H6.8779H6.87531H6.87272H6.87013H6.86755H6.86496H6.86237H6.85978H6.85719H6.85461H6.85202H6.84943H6.84684H6.84425H6.84167H6.83908H6.83649H6.8339H6.83131H6.82873H6.82614H6.82355H6.82096H6.81837H6.81579H6.8132H6.81061H6.80802H6.80543H6.80285H6.80026H6.79767H6.79508H6.79249H6.78991H6.78732H6.78473H6.78214H6.77955H6.77697H6.77438H6.77179H6.7692H6.76661H6.76403H6.76144H6.75885H6.75626H6.75367H6.75109H6.7485H6.74591H6.74332H6.74073H6.73815H6.73556H6.73297H6.73038H6.72779H6.72521H6.72262H6.72003H6.71744H6.71485H6.71227H6.70968H6.70709H6.7045H6.70191H6.69933H6.69674H6.69415H6.69156H6.68897H6.68639H6.6838H6.68121H6.67862H6.67603H6.67345H6.67086H6.66827H6.66568H6.66309H6.66051H6.65792H6.65533H6.65274H6.65015H6.64757H6.64498H6.64239H6.6398H6.63721H6.63463H6.63204H6.62945H6.62686H6.62427H6.62169H6.6191H6.61651H6.61392H6.61133H6.60875H6.60616H6.60357H6.60098H6.59839H6.59581H6.59322H6.59063H6.58804H6.58545H6.58287H6.58028H6.57769H6.5751H6.57251H6.56993H6.56734H6.56475H6.56216H6.55957H6.55699H6.5544H6.55181H6.54922H6.54663H6.54405H6.54146H6.53887H6.53628H6.53369H6.53111H6.52852H6.52593H6.52334H6.52075H6.51817H6.51558H6.51299H6.5104H6.50781H6.50523H6.50264H6.50005H6.49746H6.49487H6.49229H6.4897H6.48711H6.48452H6.48193H6.47935H6.47676H6.47417H6.47158H6.46899H6.46641H6.46382H6.46123H6.45864H6.45605H6.45346H6.45088H6.44829H6.4457H6.44311H6.44053H6.43794H6.43535H6.43276H6.43017H6.42759H6.425H6.42241H6.41982H6.41723H6.41465H6.41206H6.40947H6.40688H6.40429H6.40171H6.39912H6.39653H6.39394H6.39135H6.38876H6.38618H6.38359H6.381H6.37841H6.37582H6.37324H6.37065H6.36806H6.36547H6.36288H6.3603H6.35771H6.35512H6.35253H6.34995H6.34736H6.34477H6.34218H6.33959H6.33701H6.33442H6.33183H6.32924H6.32665H6.32406H6.32148H6.31889H6.3163H6.31371H6.31112H6.30854H6.30595H6.30336H6.30077H6.29818H6.2956H6.29301H6.29042H6.28783H6.28524H6.28266H6.28007H6.27748H6.27489H6.27231H6.26972H6.26713H6.26454H6.26195H6.25936H6.25678H6.25419H6.2516H6.24901H6.24642H6.24384H6.24125H6.23866H6.23607H6.23348H6.2309H6.22831H6.22572H6.22313H6.22054H6.21796H6.21537H6.21278H6.21019H6.2076H6.20502H6.20243H6.19984H6.19725H6.19466H6.19208H6.18949H6.1869H6.18431H6.18172H6.17914H6.17655H6.17396H6.17137H6.16878H6.1662H6.16361H6.16102H6.15843H6.15584H6.15326H6.15067H6.14808H6.14549H6.1429H6.14032H6.13773H6.13514H6.13255H6.12996H6.12738H6.12479H6.1222H6.11961H6.11702H6.11444H6.11185H6.10926H6.10667H6.10408H6.1015H6.09891H6.09632H6.09373H6.09114H6.08856H6.08597H6.08338H6.08079H6.0782H6.07562H6.07303H6.07044H6.06785H6.06526H6.06268H6.06009H6.0575H6.05491H6.05232H6.04974H6.04715H6.04456H6.04197H6.03938H6.0368H6.03421H6.03162H6.02903H6.02644H6.02386H6.02127H6.01868H6.01609H6.0135H6.01092H6.00833H6.00574H6.00315H6.00056H5.99798H5.99539H5.9928H5.99021H5.98762H5.98504H5.98245H5.97986H5.97727H5.97468H5.9721H5.96951H5.96692H5.96433H5.96174H5.95916H5.95657H5.95398H5.95139H5.9488H5.94622H5.94363H5.94104H5.93845H5.93586H5.93328H5.93069H5.9281H5.92551H5.92292H5.92034H5.91775H5.91516H5.91257H5.90998H5.9074H5.90481H5.90222H5.89963H5.89704H5.89446H5.89187H5.88928H5.88669H5.86781L5.84898 9.94444L4.42842 10.0519L4.42842 10.0519L4.42428 10.0522C3.76708 10.1074 3.11978 10.2472 2.49843 10.4682C2.05955 10.5955 1.65156 10.8118 1.29987 11.1037C0.967889 11.3624 0.731344 11.7243 0.627613 12.1324C0.541877 12.4582 0.500336 12.794 0.504085 13.1308C0.471907 13.7621 0.630389 14.3886 0.959142 14.9288L0.985015 14.9713L1.01876 15.0079C1.48394 15.5122 2.09843 15.8541 2.77214 15.9836L2.77213 15.9836L2.77679 15.9845C3.74695 16.1614 4.73034 16.2559 5.71643 16.267C6.82449 16.3215 8.2063 16.3263 9.83937 16.3268V18.9067V18.9262L9.84089 18.9457L9.94833 20.3185L9.94829 20.3185L9.94886 20.3248C9.9592 20.4385 9.97147 20.5522 9.98393 20.6675C10.0184 20.9868 10.0542 21.3188 10.0542 21.7001V21.726L10.0569 21.7518C10.1216 22.3732 10.2387 22.9879 10.407 23.5895L10.4127 23.61L10.4202 23.63C10.5804 24.0585 10.8128 24.4565 11.1073 24.8066C11.3463 25.1174 11.6738 25.3488 12.0468 25.4702L12.0664 25.4766L12.0865 25.4814C12.4291 25.5624 12.78 25.603 13.1321 25.6023C13.7642 25.635 14.3917 25.4765 14.9326 25.1474Z" fill="#EEEEEE" stroke="#EEEEEE"/>
</svg>
