<svg width="24" height="24" viewBox="0 0 24 24" fill="none" xmlns="http://www.w3.org/2000/svg">
<path d="M13.901 4.46504L13.9022 4.46394C14.5771 3.81689 14.5923 2.73774 13.9292 2.07467L12.8471 0.992581C12.8468 0.992237 12.8465 0.991893 12.8461 0.991549C12.1952 0.334759 11.1357 0.337831 10.4829 0.990685L0.992581 10.481C0.99223 10.4813 0.991879 10.4817 0.991528 10.482C0.334759 11.1329 0.337838 12.1924 0.990685 12.8453L0.990776 12.8453L10.481 22.3307C10.4813 22.331 10.4816 22.3313 10.4819 22.3316C11.1328 22.9885 12.1924 22.9854 12.8453 22.3326L13.9274 21.2504C13.9277 21.2501 13.928 21.2498 13.9284 21.2494C14.5978 20.5859 14.5822 19.5049 13.9006 18.8578C13.9005 18.8577 13.9004 18.8576 13.9003 18.8575L8.92206 14.1147H21.7056C22.6311 14.1147 23.3774 13.3684 23.3774 12.4429V10.8804C23.3774 9.95482 22.6311 9.2085 21.7056 9.2085H8.92206L13.901 4.46504Z" fill="#333333" stroke="#333333"/>
</svg>
