<svg width="100" height="100" viewBox="0 0 100 100" fill="none" xmlns="http://www.w3.org/2000/svg">
<rect width="100" height="100" rx="10" fill="#EEEEEE"/>
<path d="M60.5006 45.7755C58.211 45.5826 56.0133 45.5687 53.8993 45.5678C53.89 44.3266 53.846 43.1178 53.7674 41.9414C53.6799 40.6331 53.6362 39.4589 53.6358 38.4179C53.7069 36.9801 53.353 35.5524 52.6207 34.3396L52.6013 34.3074L52.5773 34.2786C52.2766 33.9165 51.9044 33.6259 51.4846 33.4295C51.0675 33.2342 50.6145 33.1371 50.1569 33.1461C49.7128 33.1407 49.2699 33.1918 48.8374 33.2981C48.3314 33.3791 47.8818 33.6629 47.5752 34.0795L47.5751 34.0795L47.5707 34.0856C47.2241 34.5718 46.9684 35.1232 46.816 35.7096L46.8159 35.7096L46.8138 35.7185C46.5943 36.6314 46.476 37.5687 46.4613 38.511C46.4347 38.8893 46.3993 39.293 46.3629 39.7068C46.2815 40.6333 46.1957 41.6103 46.1957 42.4665V42.4737V42.4809V42.488V42.4952V42.5023V42.5095V42.5167V42.5238V42.531V42.5381V42.5453V42.5525V42.5596V42.5668V42.5739V42.5811V42.5883V42.5954V42.6026V42.6098V42.6169V42.6241V42.6313V42.6384V42.6456V42.6528V42.6599V42.6671V42.6743V42.6814V42.6886V42.6958V42.7029V42.7101V42.7173V42.7244V42.7316V42.7388V42.746V42.7531V42.7603V42.7675V42.7747V42.7818V42.789V42.7962V42.8034V42.8105V42.8177V42.8249V42.8321V42.8392V42.8464V42.8536V42.8608V42.8679V42.8751V42.8823V42.8895V42.8967V42.9038V42.911V42.9182V42.9254V42.9326V42.9398V42.9469V42.9541V42.9613V42.9685V42.9757V42.9829V42.99V42.9972V43.0044V43.0116V43.0188V43.026V43.0332V43.0404V43.0475V43.0547V43.0619V43.0691V43.0763V43.0835V43.0907V43.0979V43.1051V43.1123V43.1195V43.1267V43.1338V43.141V43.1482V43.1554V43.1626V43.1698V43.177V43.1842V43.1914V43.1986V43.2058V43.213V43.2202V43.2274V43.2346V43.2418V43.249V43.2562V43.2634V43.2706V43.2778V43.285V43.2922V43.2994V43.3066V43.3138V43.321V43.3282V43.3355V43.3427V43.3499V43.3571V43.3643V43.3715V43.3787V43.3859V43.3931V43.4003V43.4075V43.4148V43.422V43.4292V43.4364V43.4436V43.4508V43.458V43.4652V43.4725V43.4797V43.4869V43.4941V43.5013V43.5085V43.5158V43.523V43.5302V43.5374V43.5446V43.5519V43.5591V43.5663V43.5735V43.5807V43.588V43.5952V43.6024V43.6096V43.6169V43.6241V43.6313V43.6385V43.6458V43.653V43.6602V43.6674V43.6747V43.6819V43.6891V43.6964V43.7036V43.7108V43.718V43.7253V43.7325V43.7397V43.747V43.7542V43.7614V43.7687V43.7759V43.7832V43.7904V43.7976V43.8049V43.8121V43.8193V43.8266V43.8338V43.8411V43.8483V43.8555V43.8628V43.87V43.8773V43.8845V43.8917V43.899V43.9062V43.9135V43.9207V43.928V43.9352V43.9425V43.9497V43.957V43.9642V43.9714V43.9787V43.9859V43.9932V44.0004V44.0077V44.0149V44.0222V44.0295V44.0367V44.044V44.0512V44.0585V44.0657V44.073V44.0802V44.0875V44.0948V44.102V44.1093V44.1165V44.1238V44.131V44.1383V44.1456V44.1528V44.1601V44.1674V44.1746V44.1819V44.1891V44.1964V44.2037V44.2109V44.2182V44.2255V44.2327V44.24V44.2473V44.2545V44.2618V44.2691V44.2764V44.2836V44.2909V44.2982V44.3054V44.3127V44.32V44.3273V44.3345V44.3418V44.3491V44.3564V44.3636V44.3709V44.3782V44.3855V44.3928V44.4V44.4073V44.4146V44.4219V44.4292V44.4364V44.4437V44.451V44.4583V44.4656V44.4729V44.4802V44.4874V44.4947V44.502V44.5093V44.5166V44.5239V44.5312V44.5385V44.5458V44.553V44.5603V44.5676V44.5749V44.5822V44.5895V44.5968V44.6041V44.6114V44.6187V44.626V44.6333V44.6406V44.6479V44.6552V44.6625V44.6698V44.6771V44.6844V44.6917V44.699V44.7063V44.7136V44.7209V44.7282V44.7355V44.7428V44.7501V44.7574V44.7648V44.7721V44.7794V44.7867V44.794V44.8013V44.8086V44.8159V44.8232V44.8306V44.8379V44.8452V44.8525V44.8598V44.8671V44.8745V44.8818V44.8891V44.8964V44.9037V44.911V44.9184V44.9257V44.933V44.9403V44.9477V44.955V44.9623V44.9696V44.977V44.9843V44.9916V44.9989V45.0063V45.0136V45.0209V45.0283V45.0356V45.0429V45.0503V45.0576V45.0649V45.0723V45.0796V45.0869V45.0943V45.1016V45.1089V45.1163V45.1236V45.1309V45.1383V45.1456V45.153V45.1603V45.1676V45.175V45.1823V45.1897V45.197V45.2044V45.2117V45.2191V45.2264V45.2338V45.2411V45.2484V45.2558V45.2631V45.2705V45.2778V45.2852V45.2926V45.2999V45.3073V45.3146V45.322V45.3293V45.3367V45.344V45.3514V45.3588V45.3661V45.3735V45.3808V45.3882V45.3956V45.4029V45.4103V45.4176V45.425V45.4324V45.4397V45.4471V45.4545V45.4618V45.4692V45.4766V45.4839V45.4913V45.4987V45.5061V45.5134V45.5208V45.5282V45.5356V45.5429V45.5503V45.5577V45.5651V45.5724V45.5798V45.5872V45.5946V45.6019V45.6093V45.6167V45.6241V45.6315V45.6389V45.6462V45.6536V45.661V45.6684V45.6758V45.6832V45.6906V45.6946H44.5294H44.5259H44.5225H44.519H44.5155H44.5121H44.5086H44.5052H44.5017H44.4983H44.4949H44.4914H44.488H44.4845H44.4811H44.4776H44.4742H44.4707H44.4673H44.4639H44.4604H44.457H44.4535H44.4501H44.4467H44.4432H44.4398H44.4363H44.4329H44.4295H44.426H44.4226H44.4192H44.4157H44.4123H44.4089H44.4054H44.402H44.3986H44.3952H44.3917H44.3883H44.3849H44.3815H44.378H44.3746H44.3712H44.3678H44.3643H44.3609H44.3575H44.3541H44.3506H44.3472H44.3438H44.3404H44.337H44.3336H44.3301H44.3267H44.3233H44.3199H44.3165H44.3131H44.3097H44.3062H44.3028H44.2994H44.296H44.2926H44.2892H44.2858H44.2824H44.279H44.2756H44.2722H44.2688H44.2654H44.2619H44.2585H44.2551H44.2517H44.2483H44.2449H44.2415H44.2381H44.2347H44.2313H44.2279H44.2245H44.2212H44.2178H44.2144H44.211H44.2076H44.2042H44.2008H44.1974H44.194H44.1906H44.1872H44.1838H44.1804H44.1771H44.1737H44.1703H44.1669H44.1635H44.1601H44.1567H44.1534H44.15H44.1466H44.1432H44.1398H44.1364H44.1331H44.1297H44.1263H44.1229H44.1195H44.1162H44.1128H44.1094H44.106H44.1027H44.0993H44.0959H44.0925H44.0892H44.0858H44.0824H44.0791H44.0757H44.0723H44.0689H44.0656H44.0622H44.0588H44.0555H44.0521H44.0487H44.0454H44.042H44.0386H44.0353H44.0319H44.0286H44.0252H44.0218H44.0185H44.0151H44.0118H44.0084H44.005H44.0017H43.9983H43.995H43.9916H43.9883H43.9849H43.9815H43.9782H43.9748H43.9715H43.9681H43.9648H43.9614H43.9581H43.9547H43.9514H43.948H43.9447H43.9413H43.938H43.9346H43.9313H43.928H43.9246H43.9213H43.9179H43.9146H43.9112H43.9079H43.9046H43.9012H43.8979H43.8945H43.8912H43.8879H43.8845H43.8812H43.8778H43.8745H43.8712H43.8678H43.8645H43.8612H43.8578H43.8545H43.8512H43.8478H43.8445H43.8412H43.8378H43.8345H43.8312H43.8279H43.8245H43.8212H43.8179H43.8145H43.8112H43.8079H43.8046H43.8012H43.7979H43.7946H43.7913H43.788H43.7846H43.7813H43.778H43.7747H43.7714H43.768H43.7647H43.7614H43.7581H43.7548H43.7514H43.7481H43.7448H43.7415H43.7382H43.7349H43.7316H43.7282H43.7249H43.7216H43.7183H43.715H43.7117H43.7084H43.7051H43.7018H43.6985H43.6951H43.6918H43.6885H43.6852H43.6819H43.6786H43.6753H43.672H43.6687H43.6654H43.6621H43.6588H43.6555H43.6522H43.6489H43.6456H43.6423H43.639H43.6357H43.6324H43.6291H43.6258H43.6225H43.6192H43.6159H43.6126H43.6093H43.606H43.6027H43.5994H43.5961H43.5929H43.5896H43.5863H43.583H43.5797H43.5764H43.5731H43.5698H43.5665H43.5632H43.56H43.5567H43.5534H43.5501H43.5468H43.5435H43.5402H43.537H43.5337H43.5304H43.5271H43.5238H43.5205H43.5173H43.514H43.5107H43.5074H43.5041H43.5009H43.4976H43.4943H43.491H43.4878H43.4845H43.4812H43.4779H43.4747H43.4714H43.4681H43.4648H43.4616H43.4583H43.455H43.4517H43.4485H43.4452H43.4419H43.4387H43.4354H43.4321H43.4289H43.4256H43.4223H43.4191H43.4158H43.4125H43.4093H43.406H43.4027H43.3995H43.3962H43.3929H43.3897H43.3864H43.3831H43.3799H43.3766H43.3734H43.3701H43.3668H43.3636H43.3603H43.3571H43.3538H43.3506H43.3473H43.344H43.3408H43.3375H43.3343H43.331H43.3278H43.3245H43.3213H43.318H43.3147H43.3115H43.3082H43.305H43.3017H43.2985H43.2952H43.292H43.2887H43.2855H43.2822H43.279H43.2757H43.2725H43.2693H43.266H43.2628H43.2595H43.2563H43.253H43.2498H43.2465H43.2433H43.2401H43.2368H43.2336H43.2303H43.2271H43.2238H43.2206H43.2174H43.2141H43.2109H43.2076H43.2044H43.2012H43.1979H43.1947H43.1915H43.1882H43.185H43.1818H43.1785H43.1753H43.172H43.1688H43.1656H43.1623H43.1591H43.1559H43.1527H43.1494H43.1462H43.143H43.1397H43.1365H43.1333H43.13H43.1268H43.1236H43.1204H43.1171H43.1139H43.1107H43.1074H43.1042H43.101H43.0978H43.0945H43.0913H43.0881H43.0849H43.0817H43.0784H43.0752H43.072H43.0688H43.0655H43.0623H43.0591H43.0559H43.0527H43.0494H43.0462H43.043H43.0398H43.0366H43.0334H43.0301H43.0269H43.0237H43.0205H43.0173H43.0141H43.0108H43.0076H43.0044H43.0012H42.998H42.9948H42.9916H42.9883H42.9851H42.9819H42.9787H42.9755H42.9723H42.9691H42.9659H42.9627H42.9595H42.9562H42.953H42.9498H42.9466H42.9434H42.9402H42.937H42.9338H42.9306H42.9274H42.9242H42.921H42.9178H42.9146H42.9114H42.9082H42.905H42.9018H42.8986H42.8954H42.8922H42.889H42.8858H42.8826H42.8794H42.8762H42.873H42.8698H42.8666H42.8634H42.8602H42.857H42.8538H42.8506H42.8474H42.8442H42.841H42.8378H42.8346H42.8314H42.8282H42.825H42.8218H42.8186H42.8154H42.8122H42.809H42.8058H42.8026H42.7994H42.7963H42.7931H42.7899H42.7867H42.7835H42.7803H42.7771H42.7739H42.7707H42.7675H42.7643H42.7611H42.7579H42.7547H42.7515H42.7483H42.7451H42.7419H42.7387H42.7355H42.7324H42.7292H42.726H42.7228H42.7196H42.7164H42.7132H42.71H42.7068H42.7036H42.7004H42.6972H42.694H42.6908H42.6876H42.6844H42.6812H42.678H42.6748H42.6716H42.6685H42.6653H42.6621H42.6589H42.6557H42.6525H42.6493H42.6461H42.6429H42.6397H42.6365H42.6333H42.6301H42.6269H42.6237H42.6205H42.6173H42.6141H42.6109H42.6077H42.6046H42.6014H42.5982H42.595H42.5918H42.5886H42.5854H42.5822H42.579H42.5758H42.5726H42.5694H42.5662H42.563H42.5598H42.5566H42.5534H42.5502H42.547H42.5438H42.5407H42.5375H42.5343H42.5311H42.5279H42.5247H42.5215H42.5183H42.5151H42.5119H42.5087H42.5055H42.5023H42.4991H42.4959H42.4927H42.4895H42.4863H42.4831H42.4799H42.4768H42.4736H42.4704H42.4672H42.464H42.4608H42.4576H42.4544H42.4512H42.448H42.4448H42.4416H42.4384H42.4352H42.432H42.4288H42.4256H42.4224H42.4192H42.416H42.4129H42.4097H42.4065H42.4033H42.4001H42.3969H42.3937H42.3905H42.3873H42.3841H42.3809H42.3777H42.3745H42.3713H42.3681H42.3649H42.3617H42.3585H42.3553H42.3522H42.349H42.3458H42.3426H42.3394H42.3362H42.333H42.3298H42.3266H42.3234H42.3202H42.317H42.3138H42.3106H42.3074H42.3042H42.301H42.2978H42.2946H42.2914H42.2883H42.2851H42.2819H42.2787H42.2755H42.2723H42.2691H42.2659H42.2627H42.2595H42.2563H42.2531H42.2499H42.2467H42.2435H42.2403H42.2371H42.2339H42.2307H42.2275H42.2244H42.2212H42.218H42.2148H42.2116H42.2084H42.2052H42.202H42.1988H42.1956H42.1924H42.1892H42.186H42.1828H42.1796H42.1764H42.1732H42.17H42.1668H42.1636H42.1605H42.1573H42.1541H42.1509H42.1477H42.1445H42.1413H42.1381H42.1349H42.1317H42.1285H42.1253H42.1221H42.1189H42.1157H42.1125H42.1093H42.1061H42.1029H42.0997H42.0966H42.0934H42.0902H42.087H42.0838H42.0806H42.0774H42.0742H42.071H42.0678H42.0646H42.0614H42.0582H42.055H42.0518H42.0486H42.0454H42.0422H42.039H42.0358H42.0327H42.0295H42.0263H42.0231H42.0199H42.0167H42.0135H42.0103H42.0071H42.0039H42.0007H41.9975H41.9943H41.9911H41.9879H41.9847H41.9815H41.9783H41.9751H41.972H41.9688H41.9656H41.9624H41.9592H41.956H41.9528H41.9496H41.9464H41.9432H41.94H41.9368H41.9336H41.9304H41.9272H41.924H41.9208H41.9176H41.9144H41.9112H41.9081H41.9049H41.9017H41.8985H41.8953H41.8921H41.8889H41.8857H41.8825H41.8793H41.8761H41.8729H41.8697H41.8665H41.8633H41.8601H41.8569H41.8537H41.8505H41.8473H41.8442H41.841H41.8378H41.8346H41.8314H41.8282H41.825H41.8218H41.8186H41.8154H41.8122H41.809H41.8058H41.8026H41.7994H41.7962H41.793H41.7898H41.7866H41.7834H41.7803H41.7771H41.7739H41.7707H41.7675H41.7643H41.7611H41.7579H41.7547H41.7515H41.7483H41.7451H41.7419H41.7387H41.7355H41.7323H41.7291H41.7259H41.7227H41.7195H41.7164H41.7132H41.71H41.7068H41.7036H41.7004H41.6972H41.694H41.6908H41.6876H41.6844H41.6812H41.678H41.6748H41.6716H41.6684H41.6652H41.662H41.6588H41.6556H41.6525H41.6493H41.6461H41.6429H41.6397H41.6365H41.6333H41.6301H41.6269H41.6237H41.6205H41.6173H41.6141H41.6109H41.6077H41.6045H41.6013H41.5981H41.5949H41.5917H41.5886H41.5854H41.5822H41.579H41.5758H41.5726H41.5694H41.5662H41.563H41.5598H41.5566H41.5534H41.5502H41.547H41.5438H41.5406H41.5374H41.5342H41.531H41.5279H41.5247H41.5215H41.5183H41.5151H41.5119H41.5087H41.5055H41.5023H41.4991H41.4959H41.4927H41.4895H41.4863H41.4831H41.4799H41.4767H41.4735H41.4703H41.4671H41.464H41.4608H41.4576H41.4544H41.4512H41.448H41.4448H41.4416H41.4384H41.4352H41.432H41.4288H41.4256H41.4224H41.4192H41.416H41.4128H41.4096H41.4064H41.4032H41.4001H41.3969H41.3937H41.3905H41.3873H41.3841H41.3809H41.3777H41.3745H41.3713H41.3681H41.3649H41.3617H41.3585H41.3553H41.3521H41.3489H41.3457H41.3425H41.3393H41.3362H41.333H41.3298H41.3266H41.3234H41.3202H41.317H41.3138H41.3106H41.3074H41.3042H41.301H41.2978H41.2946H41.2914H41.2882H41.285H41.2818H41.2786H41.2754H41.2723H41.2691H41.2659H41.2627H41.2595H41.2563H41.2531H41.2499H41.2467H41.2435H41.2403H41.2371H41.2339H41.2307H41.2275H41.2243H41.2211H41.2179H41.2147H41.2115H41.2084H41.2052H41.202H41.1988H41.1784L41.1582 45.6962L39.4045 45.839L39.4045 45.839L39.4 45.8394C38.5945 45.9122 37.8017 46.0968 37.0413 46.3881C36.5094 46.5538 36.0176 46.8352 35.5958 47.2123C35.2069 47.538 34.9357 47.9887 34.8177 48.4892C34.7154 48.9076 34.6661 49.3385 34.6711 49.7705C34.6321 50.5706 34.8179 51.3671 35.2076 52.0565L35.2316 52.0989L35.2632 52.1358C35.817 52.7821 36.5539 53.2261 37.369 53.3947L37.369 53.3947L37.3739 53.3957C38.5675 53.6301 39.7775 53.7552 40.991 53.7698C42.3834 53.8436 44.1274 53.8489 46.1957 53.8492V57.4422V57.4603L46.197 57.4784L46.3297 59.3028L46.3296 59.3028L46.3301 59.3086C46.3424 59.4539 46.3572 59.6014 46.3724 59.7526C46.4152 60.1797 46.461 60.6361 46.461 61.1544V61.1785L46.4633 61.2025C46.5421 62.017 46.6847 62.8231 46.8897 63.6121L46.8947 63.6315L46.9013 63.6505C47.0925 64.2008 47.3705 64.7134 47.7243 65.1655C48.0009 65.5539 48.3848 65.8489 48.8294 66.0047L48.85 66.0119L48.8713 66.0174C49.2885 66.1236 49.7161 66.1768 50.1454 66.1757C50.9116 66.2188 51.6695 66.0119 52.3193 65.5862L52.3389 65.5733L52.3573 65.5587C52.9346 65.0977 53.3328 64.4361 53.4897 63.698C53.7471 62.7373 53.8853 61.7447 53.9009 60.7456C53.9748 59.574 53.9748 58.1532 53.9748 56.505V56.4903V53.7085C54.2519 53.7106 54.525 53.714 54.7945 53.7173C55.6325 53.7278 56.4365 53.7378 57.2235 53.7061C58.3986 53.6586 59.5007 53.58 60.5294 53.4856C61.9099 53.5518 63.2704 53.1378 64.409 52.3101L64.4369 52.2898L64.4617 52.2659C64.7993 51.9411 65.0652 51.5437 65.2435 51.1025C65.4206 50.6638 65.5076 50.1906 65.4993 49.7146C65.5044 49.2438 65.4576 48.7739 65.3597 48.3146C65.2895 47.7988 65.0382 47.3228 64.6458 46.9881L64.6458 46.9881L64.6411 46.9841C64.1867 46.6061 63.6525 46.3471 63.0819 46.2315C62.2362 45.9959 61.3722 45.8433 60.5006 45.7755ZM60.5006 45.7755C60.5011 45.7756 60.5017 45.7756 60.5022 45.7757L60.4602 46.2739M60.5006 45.7755C60.5 45.7755 60.4994 45.7754 60.4989 45.7754L60.4602 46.2739M60.4602 46.2739C58.0138 46.0677 55.6706 46.0677 53.4011 46.0677M60.4602 46.2739L53.4011 46.0677M53.4011 46.0677C53.4011 44.6611 53.3569 43.2968 53.2685 41.9748C53.1801 40.6528 53.1358 39.463 53.1358 38.4054C53.2047 37.0606 52.8744 35.7272 52.1927 34.598L53.4011 46.0677Z" fill="#0E9EBE" stroke="#0E9EBE"/>
</svg>
