<svg width="20" height="12" viewBox="0 0 20 12" fill="none" xmlns="http://www.w3.org/2000/svg">
<path d="M18.9294 4.45504L11.277 11.0378C10.5634 11.6517 9.42978 11.657 8.72119 11.0362C8.72046 11.0356 8.71972 11.035 8.71899 11.0343L1.07263 4.45676C1.07221 4.45641 1.0718 4.45606 1.07139 4.45571C0.307884 3.80472 0.311453 2.70914 1.07062 2.05609L2.34026 0.963921C2.34064 0.963596 2.34101 0.963272 2.34138 0.962948C3.05387 0.344496 4.18687 0.347129 4.90187 0.96219L10 5.34772L15.0961 0.963919C15.0965 0.963605 15.0968 0.963291 15.0972 0.962978C15.8097 0.344495 16.9427 0.347118 17.6577 0.962188L18.9285 2.05531C19.6921 2.70628 19.6886 3.80195 18.9294 4.45504Z" fill="#333333" stroke="#333333"/>
</svg>
