<svg width="34" height="26" viewBox="0 0 34 26" fill="none" xmlns="http://www.w3.org/2000/svg">
<path d="M17 24.3601C21.5105 24.3601 25.6148 23.0548 28.6044 20.9192C31.5929 18.7842 33.5 15.7897 33.5 12.4301C33.5 9.07038 31.5929 6.0759 28.6044 3.94094C25.6148 1.80529 21.5105 0.5 17 0.5C12.4895 0.5 8.38516 1.80529 5.39565 3.94094C2.40709 6.0759 0.5 9.07038 0.5 12.4301C0.5 15.7897 2.40709 18.7842 5.39565 20.9192C8.38516 23.0548 12.4895 24.3601 17 24.3601Z" fill="#D1D1D1" stroke="#D1D1D1"/>
<path d="M17 20C23.0751 20 28 16.6421 28 12.5C28 8.35786 23.0751 5 17 5C10.9249 5 6 8.35786 6 12.5C6 16.6421 10.9249 20 17 20Z" fill="#666666"/>
<path d="M7.64528 19.1471L7.64528 19.1471L7.64392 19.1466L6.98654 18.9121L6.2661 18.6552L6.31981 19.4182L6.37378 20.1849V20.1849V20.185V20.1851V20.1852V20.1852V20.1853V20.1854V20.1855V20.1856V20.1857V20.1857V20.1858V20.1859V20.186V20.1861V20.1861V20.1862V20.1863V20.1864V20.1865V20.1866V20.1867V20.1867V20.1868V20.1869V20.187V20.1871V20.1872V20.1873V20.1873V20.1874V20.1875V20.1876V20.1877V20.1878V20.1879V20.1879V20.188V20.1881V20.1882V20.1883V20.1884V20.1885V20.1886V20.1886V20.1887V20.1888V20.1889V20.189V20.1891V20.1892V20.1893V20.1894V20.1895V20.1895V20.1896V20.1897V20.1898V20.1899V20.19V20.1901V20.1902V20.1903V20.1904V20.1905V20.1906V20.1906V20.1907V20.1908V20.1909V20.191V20.1911V20.1912V20.1913V20.1914V20.1915V20.1916V20.1917V20.1918V20.1919V20.192V20.1921V20.1922V20.1922V20.1923V20.1924V20.1925V20.1926V20.1927V20.1928V20.1929V20.193V20.1931V20.1932V20.1933V20.1934V20.1935V20.1936V20.1937V20.1938V20.1939V20.194V20.1941V20.1942V20.1943V20.1944V20.1945V20.1946V20.1947V20.1948V20.1949V20.195V20.1951V20.1952V20.1953V20.1954V20.1955V20.1956V20.1957V20.1958V20.1959V20.196V20.1961V20.1962V20.1963V20.1964V20.1965V20.1966V20.1967V20.1968V20.1969V20.1971V20.1972V20.1973V20.1974V20.1975V20.1976V20.1977V20.1978V20.1979V20.198V20.1981V20.1982V20.1983V20.1984V20.1985V20.1986V20.1988V20.1989V20.199V20.1991V20.1992V20.1993V20.1994V20.1995V20.1996V20.1997V20.1998V20.1999V20.2001V20.2002V20.2003V20.2004V20.2005V20.2006V20.2007V20.2008V20.2009V20.2011V20.2012V20.2013V20.2014V20.2015V20.2016V20.2017V20.2018V20.202V20.2021V20.2022V20.2023V20.2024V20.2025V20.2026V20.2027V20.2029V20.203V20.2031V20.2032V20.2033V20.2034V20.2036V20.2037V20.2038V20.2039V20.204V20.2041V20.2043V20.2044V20.2045V20.2046V20.2047V20.2048V20.205V20.2051V20.2052V20.2053V20.2054V20.2055V20.2057V20.2058V20.2059V20.206V20.2061V20.2063V20.2064V20.2065V20.2066V20.2068V20.2069V20.207V20.2071V20.2072V20.2074V20.2075V20.2076V20.2077V20.2078V20.208V20.2081V20.2082V20.2083V20.2085V20.2086V20.2087V20.2088V20.209V20.2091V20.2092V20.2093V20.2095V20.2096V20.2097V20.2098V20.21V20.2101V20.2102V20.2103V20.2105V20.2106V20.2107V20.2109V20.211V20.2111V20.2112V20.2114V20.2115V20.2116V20.2118V20.2119V20.212V20.2121V20.2123V20.2124V20.2125V20.2127V20.2128V20.2129V20.213V20.2132V20.2133V20.2134V20.2136V20.2137V20.2138V20.214V20.2141V20.2142V20.2144V20.2145V20.2146V20.2148V20.2149V20.215V20.2152V20.2153V20.2154V20.2156V20.2157V20.2158V20.216V20.2161V20.2163V20.2164V20.2165V20.2167V20.2168V20.2169V20.2171V20.2172V20.2173V20.2175V20.2176V20.2178V20.2179V20.218V20.2182V20.2183V20.2185V20.2186V20.2187V20.2189V20.219V20.2191V20.2193V20.2194V20.2196V20.2197V20.2199V20.22V20.2201V20.2203V20.2204V20.2206V20.2207V20.2208V20.221V20.2211V20.2213V20.2214V20.2216V20.2217V20.2218V20.222V20.2221V20.2223V20.2224V20.2226V20.2227V20.2229V20.223V20.2232V20.2233V20.2234V20.2236V20.2237V20.2239V20.224V20.2242V20.2243V20.2245V20.2246V20.2248V20.2249V20.2251V20.2252V20.2254V20.2255V20.2257V20.2258V20.226V20.2261V20.2263V20.2264V20.2266V20.2267V20.2269V20.227V20.2272V20.2273V20.2275V20.2276V20.2278V20.2279V20.2281V20.2282V20.2284V20.2285V20.2287V20.2288V20.229V20.2292V20.2293V20.2295V20.2296V20.2298V20.2299V20.2301V20.2302V20.2304V20.2306V20.2307V20.2309V20.231V20.2312V20.2313V20.2315V20.2317V20.2318C6.37378 20.2801 6.37352 20.3346 6.36478 20.4009L6.36368 20.4092L6.36287 20.4176C6.33646 20.6874 6.2813 20.9518 6.19896 21.2048L6.19843 21.2065C5.99338 21.8441 5.53996 22.7166 4.50641 23.519C4.48226 23.5327 4.45014 23.5518 4.41271 23.5759C4.33777 23.6242 4.23581 23.6967 4.13285 23.792C3.94484 23.966 3.65672 24.3079 3.69473 24.7838L3.69737 24.8169L3.70435 24.8493C3.77503 25.1774 4.0443 25.3152 4.19147 25.3666C4.34876 25.4215 4.5165 25.4354 4.64058 25.4386C4.77233 25.442 4.8967 25.4339 4.9851 25.4257C5.03014 25.4215 5.06782 25.4171 5.09492 25.4136L5.1179 25.4105C6.78545 25.2964 8.38751 24.6621 9.75155 23.5853C10.1795 23.2519 10.5802 22.8768 10.9493 22.4645L10.9497 22.4641C10.9794 22.4308 11.0076 22.3987 11.0343 22.3678L11.0623 22.3933L11.3713 21.9468L11.3737 21.9434L11.3816 21.9328L11.3888 21.9217L11.3914 21.9177L11.8079 21.3158L12.1765 20.7831L11.5678 20.5615L10.9237 20.327L10.922 20.3264L7.64528 19.1471Z" fill="#D1D1D1" stroke="#D1D1D1"/>
</svg>
