<svg width="29" height="28" viewBox="0 0 29 28" fill="none" xmlns="http://www.w3.org/2000/svg">
<path d="M28.0044 18.9121V24.2802C28.0044 25.2667 27.6117 26.2128 26.9126 26.9104C26.2136 27.608 25.2655 27.9999 24.2769 27.9999H3.72749C2.7389 27.9999 1.7908 27.608 1.09176 26.9104C0.392717 26.2128 0 25.2667 0 24.2802V18.9121" fill="#666666"/>
<path d="M28.0044 18.9137V12.3787C28.0044 11.3921 27.6117 10.446 26.9126 9.74842C26.2136 9.05083 25.2655 8.65894 24.2769 8.65894H3.72749C2.7389 8.65894 1.7908 9.05083 1.09176 9.74842C0.392717 10.446 0 11.3921 0 12.3787V18.9137" fill="#666666"/>
<path d="M24.1174 4.38184H3.99628C3.2794 4.38184 2.69824 4.96178 2.69824 5.67717V5.67863C2.69824 6.39403 3.2794 6.97397 3.99628 6.97397H24.1174C24.8343 6.97397 25.4154 6.39403 25.4154 5.67863V5.67717C25.4154 4.96178 24.8343 4.38184 24.1174 4.38184Z" fill="#666666"/>
<path d="M21.4923 0H6.39082C5.67393 0 5.09277 0.579942 5.09277 1.29534V1.35223C5.09277 2.06762 5.67393 2.64756 6.39082 2.64756H21.4923C22.2091 2.64756 22.7903 2.06762 22.7903 1.35223V1.29534C22.7903 0.579942 22.2091 0 21.4923 0Z" fill="#666666"/>
</svg>
