<svg width="8" height="25" viewBox="0 0 8 25" fill="none" xmlns="http://www.w3.org/2000/svg">
<path d="M3.49512 6.79385C2.81006 6.79357 2.13961 6.59728 1.56409 6.2285C0.987379 5.85809 0.536517 5.32382 0.270292 4.69534C0.0112932 4.09098 -0.0593289 3.42347 0.0675338 2.7789C0.205337 2.11445 0.541822 1.50667 1.03305 1.03494C1.52583 0.550067 2.14959 0.217247 2.82891 0.0767159C3.50216 -0.0559291 4.19978 0.00942888 4.83612 0.264765C5.47246 0.520101 6.01981 0.9543 6.41098 1.51405C6.85902 2.16598 7.06108 2.95382 6.98161 3.73901C6.90214 4.52419 6.54624 5.25641 5.9765 5.80688C5.30925 6.44218 4.41978 6.79596 3.49512 6.79385ZM3.49512 15.897C2.80917 15.8933 2.1388 15.6937 1.56409 15.322C0.986855 14.9564 0.535555 14.425 0.270292 13.7984C0.00142535 13.1798 -0.0693562 12.494 0.0675338 11.8341C0.207709 11.1733 0.54398 10.5692 1.03305 10.0997C1.53276 9.6141 2.16543 9.28519 2.8522 9.15399C3.53898 9.02279 4.24947 9.09509 4.89512 9.36188C5.53302 9.61705 6.08059 10.0538 6.46891 10.6172C6.85465 11.1828 7.05987 11.8506 7.05788 12.5336C7.05778 12.9806 6.96712 13.423 6.7913 13.8345C6.61549 14.2461 6.3581 14.6183 6.03443 14.9292C5.69657 15.2489 5.29821 15.4991 4.86236 15.6652C4.42651 15.8314 3.96182 15.9101 3.49512 15.897ZM3.49512 18.2063C4.18107 18.2099 4.85144 18.4095 5.42615 18.7812C6.01531 19.1437 6.47988 19.6749 6.75857 20.3048C7.02744 20.9235 7.09822 21.6092 6.96133 22.2691C6.81732 22.9285 6.48163 23.5315 5.99581 24.0035C5.5003 24.4797 4.87617 24.8028 4.19918 24.9338C3.5222 25.0648 2.82146 24.9979 2.18202 24.7413C1.53553 24.492 0.980174 24.0544 0.588913 23.4861C0.139704 22.8363 -0.0631172 22.0496 0.0164159 21.2655C0.0959489 20.4815 0.452697 19.7507 1.0234 19.2028C1.6833 18.5611 2.57126 18.2031 3.49512 18.2063Z" fill="#333333"/>
<path d="M7 3.58398C6.74239 4.39923 6.36848 5.17367 5.88966 5.88372C4.24828 7.22523 4.18069 8.30802 5.95724 10.0711C6.40426 10.8368 6.75448 11.6543 7 12.505C6.9258 13.4433 6.51466 14.324 5.84138 14.9868C4.2869 16.3092 4.18069 17.4015 6.01517 19.2317C6.5363 19.8562 6.87077 20.613 6.98069 21.4165H0.057931C0.057931 21.4165 -0.202759 20.8416 1.02345 19.2317C2.75172 17.3153 2.67448 16.4912 1.14897 15.0156C0.500029 14.3257 0.0964913 13.4439 0 12.505C0.178878 11.6244 0.544179 10.7915 1.07172 10.0616C2.7131 8.43259 2.62621 7.35938 1.14897 5.88372C0.682216 5.16124 0.296913 4.39003 0 3.58398H7Z" fill="#333333"/>
</svg>
