<svg width="26" height="26" viewBox="0 0 26 26" fill="none" xmlns="http://www.w3.org/2000/svg">
<path d="M0 13C0 5.81953 5.81953 0 13 0C20.1805 0 26 5.81953 26 13C26 20.1805 20.1805 26 13 26C5.81953 26 0 20.1805 0 13ZM13 19.4492C9.19141 19.4492 8.36367 16.5801 6.52539 15.8336C5.95156 15.5645 5.08828 16.2348 5.34219 16.834C6.88086 20.1246 9.56719 21.9375 13.0152 21.9375C16.4633 21.9375 19.4187 19.8352 20.6883 16.834C20.9422 16.2348 20.2719 15.5492 19.6574 15.8336C17.748 16.5801 17.0625 19.3477 13 19.4492ZM8.9375 6.5C8.03867 6.5 7.3125 7.95742 7.3125 9.75C7.3125 11.5426 8.03867 13 8.9375 13C9.83633 13 10.5625 11.5426 10.5625 9.75C10.5625 7.95742 9.83633 6.5 8.9375 6.5ZM17.0625 13C17.9613 13 18.6875 11.5426 18.6875 9.75C18.6875 7.95742 17.9613 6.5 17.0625 6.5C16.1637 6.5 15.4375 7.95742 15.4375 9.75C15.4375 11.5426 16.1637 13 17.0625 13Z" fill="#888888"/>
</svg>
