<svg width="35" height="25" viewBox="0 0 35 25" fill="none" xmlns="http://www.w3.org/2000/svg">
<path d="M31.7079 13.1169C34.7977 10.1374 34.7977 5.31219 31.7079 2.33269C28.9735 -0.304024 24.6641 -0.646797 21.5196 1.52059L21.4321 1.57859C20.6446 2.12176 20.4641 3.17644 21.0274 3.93055C21.5907 4.68465 22.6844 4.86395 23.4665 4.32078L23.554 4.26277C25.3094 3.05516 27.7102 3.245 29.2305 4.71629C30.9532 6.37742 30.9532 9.06687 29.2305 10.728L23.0946 16.6554C21.3719 18.3165 18.5829 18.3165 16.8602 16.6554C15.3344 15.1841 15.1375 12.869 16.3899 11.1815L16.45 11.0971C17.0133 10.3378 16.8274 9.28309 16.0454 8.7452C15.2633 8.2073 14.1641 8.38133 13.6063 9.13543L13.5461 9.2198C11.293 12.2468 11.6485 16.4022 14.3829 19.0389C17.4727 22.0184 22.4766 22.0184 25.5665 19.0389L31.7079 13.1169ZM3.29224 11.8829C0.202393 14.8624 0.202393 19.6876 3.29224 22.6671C6.02661 25.3038 10.336 25.6466 13.4805 23.4792L13.568 23.4212C14.3555 22.878 14.536 21.8233 13.9727 21.0692C13.4094 20.3151 12.3157 20.1358 11.5336 20.679L11.4461 20.737C9.69067 21.9446 7.28989 21.7548 5.76958 20.2835C4.04692 18.6171 4.04692 15.9276 5.76958 14.2665L11.9055 8.34441C13.6282 6.68328 16.4172 6.68328 18.1399 8.34441C19.6657 9.8157 19.8625 12.1307 18.6102 13.8235L18.55 13.9079C17.9868 14.6673 18.1727 15.722 18.9547 16.2598C19.7368 16.7977 20.836 16.6237 21.3938 15.8696L21.454 15.7852C23.7071 12.753 23.3516 8.59754 20.6172 5.96082C17.5274 2.98133 12.5235 2.98133 9.43364 5.96082L3.29224 11.8829Z" fill="#EEEEEE"/>
</svg>
