<svg width="35" height="31" viewBox="0 0 35 31" fill="none" xmlns="http://www.w3.org/2000/svg">
<g clip-path="url(#clip0_179_2)">
<path d="M34.9998 24.3359C35.0738 28.7725 32.6664 30.8144 28.7775 30.8144C28.7775 30.8144 28.8516 30.8329 28.7775 30.8144C20.8701 30.8144 14.6479 31 6.74051 31C6.74051 31 6.74051 31 6.55532 31C2.85162 31 0.073839 28.9581 0.0182834 24.4287C-0.000235098 17.9132 -0.000235098 12.9012 0.0182834 6.38563C0.073839 2.78443 2.11088 0 6.37014 0C6.55532 0 6.74051 0 6.92569 0C15.5183 0 22.222 0 30.8146 0C30.8146 0 30.8146 0 30.9998 0C32.4812 0 33.0183 1.16946 32.7961 1.96766C32.5368 2.91437 31.8516 3.17425 30.9812 3.17425C25.7405 3.17425 20.4998 3.17425 15.2405 3.17425C12.3331 3.17425 9.40717 3.17425 6.49976 3.17425C4.29606 3.17425 3.22199 4.23234 3.22199 6.45988C3.20347 12.4186 3.20347 18.3772 3.22199 24.3545C3.22199 26.582 4.31458 27.6216 6.51828 27.6216C13.8701 27.6216 21.2405 27.6216 28.5924 27.6216C30.759 27.6216 31.8516 26.5078 31.8516 24.2988C31.8516 20.5677 31.8516 16.818 31.8516 13.0868C31.8516 10.9335 30.7405 9.81976 28.6294 9.81976C21.9442 9.81976 15.259 9.81976 8.57384 9.81976C7.16643 9.81976 6.42569 9.05868 6.62939 7.88922C6.77754 7.03533 7.48125 6.55269 8.66643 6.55269C10.6849 6.53413 12.722 6.55269 14.7405 6.55269C19.3331 6.55269 23.9442 6.55269 28.5368 6.55269C33.0368 6.55269 34.8887 9.09581 34.8887 12.994" fill="#666666"/>
<path d="M28.4998 18.7486C28.4998 19.9737 27.5554 20.9204 26.3702 20.939C25.1479 20.9575 24.1479 19.9551 24.1479 18.7114C24.1665 17.4492 25.1294 16.521 26.3887 16.5396C27.6109 16.5767 28.4998 17.5048 28.4998 18.7486Z" fill="#666666"/>
</g>
<defs>
<clipPath id="clip0_179_2">
<rect width="35" height="31" fill="white"/>
</clipPath>
</defs>
</svg>
