<svg width="27" height="24" viewBox="0 0 27 24" fill="none" xmlns="http://www.w3.org/2000/svg">
<path d="M25.2781 8.28743L25.278 8.28736L17.3716 1.50236C17.3716 1.50235 17.3716 1.50234 17.3716 1.50233C16.0502 0.368284 13.9375 1.26954 13.9375 3.07209V5.6661C10.677 5.76388 7.62309 6.18518 5.29964 7.39953C3.99883 8.0794 2.90697 9.01758 2.14725 10.2952C1.38872 11.5708 1 13.1196 1 14.961C1 18.0954 2.99517 21.0892 5.15766 22.6523C5.8391 23.1449 6.66362 23.0709 7.23395 22.7001C7.81545 22.3221 8.22739 21.5641 7.95864 20.71C6.9683 17.5624 7.357 16.0472 8.27001 15.2114C8.77653 14.7477 9.55452 14.3766 10.6918 14.121C11.5929 13.9185 12.673 13.7987 13.9375 13.7458V16.6428C13.9375 18.4491 16.0528 19.3444 17.3716 18.2126C17.3716 18.2126 17.3716 18.2126 17.3716 18.2126L25.278 11.4269L25.2781 11.4268C26.2399 10.6013 26.2414 9.11431 25.2781 8.28743Z" fill="#888888" stroke="#888888" stroke-width="2"/>
</svg>
