<svg width="35" height="20" viewBox="0 0 35 20" fill="none" xmlns="http://www.w3.org/2000/svg">
<path d="M34.0089 13.9441L34.0065 13.9465L28.8865 19.0075L28.8803 19.0137L28.8802 19.0136C28.5536 19.3253 28.1208 19.5 27.6696 19.5C27.2185 19.5 26.7857 19.3253 26.4591 19.0136L26.4527 19.0075L26.4527 19.0075L21.3357 13.9493C21.3351 13.9488 21.3346 13.9483 21.3341 13.9478C21.1734 13.7911 21.046 13.6036 20.959 13.3967L21.4199 13.2029L20.959 13.3966C20.8717 13.189 20.8268 12.9659 20.8268 12.7406C20.8268 12.5153 20.8717 12.2922 20.959 12.0846L21.4199 12.2783L20.959 12.0846C21.046 11.8775 21.1735 11.6899 21.3343 11.5332C21.3347 11.5328 21.3352 11.5323 21.3357 11.5319L21.8869 10.9883C22.212 10.6616 22.6525 10.4769 23.1132 10.4769C23.5749 10.4769 24.0164 10.6624 24.3417 10.9904L24.3484 10.9972L24.3483 10.9973L25.5395 12.245V4.86835H16.5102C16.0548 4.87211 15.6178 4.69268 15.2944 4.37165L15.2903 4.3676L15.2903 4.36758L14.4853 3.54997L14.4821 3.54677L14.4822 3.54675C14.2496 3.30629 14.0933 3.00216 14.0318 2.67316C13.9703 2.3442 14.0061 2.004 14.135 1.69521C14.2639 1.38636 14.4806 1.122 14.7589 0.936412C15.0366 0.751153 15.3629 0.652995 15.6967 0.655162M34.0089 13.9441L15.6949 1.15516M34.0089 13.9441C34.165 13.7877 34.2885 13.6018 34.3726 13.3974L33.9103 13.2071L34.3726 13.3974C34.4568 13.193 34.5 12.974 34.5 12.7529C34.5 12.5318 34.4568 12.3127 34.3726 12.1084C34.2885 11.904 34.165 11.7181 34.0089 11.5617L34.0061 11.5588L33.4545 11.015C33.4538 11.0142 33.4531 11.0135 33.4524 11.0128L34.0089 13.9441ZM15.6967 0.655162C15.6974 0.655167 15.6981 0.655172 15.6988 0.655177L15.6949 1.15516M15.6967 0.655162H15.6949V1.15516M15.6967 0.655162H28.073M15.6949 1.15516H28.0762M28.073 0.655162C28.0718 0.655177 28.0705 0.655192 28.0693 0.65521L28.0762 1.15516M28.073 0.655162H28.0762V1.15516M28.073 0.655162L28.0762 1.15516M29.7998 12.2695L29.2998 12.7932L29.7998 12.2695ZM5.21261 7.76044V17.6626H5.21252L5.21271 17.6724C5.2216 18.1258 5.40671 18.5588 5.73008 18.8765C6.05282 19.1935 6.48725 19.3697 6.93934 19.3645H19.3109C19.6484 19.3726 19.9801 19.278 20.2631 19.0936C20.5483 18.9078 20.7704 18.6399 20.9017 18.3257C21.0331 18.0116 21.068 17.665 21.0022 17.3309C20.9364 16.9967 20.7728 16.6894 20.5314 16.4495L20.5298 16.448L19.7191 15.649C19.5589 15.4873 19.3672 15.3604 19.1558 15.2765L19.1549 15.2761C18.9484 15.1946 18.7286 15.1522 18.5066 15.1513H18.5044H9.47296V7.75013L10.6641 8.99785L10.664 8.99792L10.6708 9.00468C10.996 9.33268 11.4375 9.51816 11.8992 9.51816C12.3606 9.51816 12.8018 9.33294 13.127 9.00537C13.1272 9.00514 13.1275 9.00491 13.1277 9.00468L13.6703 8.46169C13.8315 8.30606 13.9596 8.11931 14.0473 7.91293L13.587 7.7175L14.0473 7.91292C14.1357 7.70475 14.1812 7.48071 14.1812 7.25449C14.1812 7.02827 14.1357 6.80423 14.0473 6.59606L13.587 6.79148L14.0473 6.59605C13.9595 6.38934 13.8311 6.20233 13.6695 6.04655L8.60151 1.01371C8.60138 1.01358 8.60126 1.01345 8.60113 1.01332C8.27192 0.685208 7.82746 0.5 7.36291 0.5C6.89857 0.5 6.4543 0.685044 6.12514 1.01289C6.12486 1.01316 6.12459 1.01343 6.12431 1.01371L1.00723 6.07184C0.846597 6.22849 0.719164 6.41602 0.632166 6.62298C0.544888 6.83061 0.5 7.05374 0.5 7.27902C0.5 7.50429 0.544888 7.72743 0.632166 7.93506C0.719202 8.14211 0.84671 8.32971 1.00744 8.48641C1.0079 8.48685 1.00836 8.4873 1.00882 8.48775L1.56 9.03133C1.88509 9.35801 2.32562 9.54269 2.78635 9.54269C3.24809 9.54269 3.68952 9.35721 4.01482 9.02921L4.01493 9.02932L4.02341 9.02033L5.21261 7.76044Z" fill="#888888" stroke="#888888"/>
</svg>
