<svg width="26" height="26" viewBox="0 0 26 26" fill="none" xmlns="http://www.w3.org/2000/svg">
<path d="M0 13C0 5.81953 5.81953 0 13 0C20.1805 0 26 5.81953 26 13C26 20.1805 20.1805 26 13 26C5.81953 26 0 20.1805 0 13ZM13 18.073C17.0625 17.9816 17.748 20.2617 19.6574 20.9219C20.2719 21.1758 20.9422 20.3125 20.6883 19.7793C19.5 17.4738 15.4375 15.7625 13.0152 15.7625C10.5625 15.7625 6.85547 17.3266 5.34219 19.7793C5.08828 20.3125 5.95156 21.1605 6.52539 20.9219C8.36367 20.2617 9.19141 18.073 13 18.073ZM8.9375 6.5C8.03867 6.5 7.3125 7.95742 7.3125 9.75C7.3125 11.5426 8.03867 13 8.9375 13C9.83633 13 10.5625 11.5426 10.5625 9.75C10.5625 7.95742 9.83633 6.5 8.9375 6.5ZM17.0625 13C17.9613 13 18.6875 11.5426 18.6875 9.75C18.6875 7.95742 17.9613 6.5 17.0625 6.5C16.1637 6.5 15.4375 7.95742 15.4375 9.75C15.4375 11.5426 16.1637 13 17.0625 13Z" fill="#888888"/>
</svg>
