<svg width="29" height="26" viewBox="0 0 29 26" fill="none" xmlns="http://www.w3.org/2000/svg">
<path d="M29 6.5V23.2143C29 24.7522 27.7822 26 26.2812 26H2.71875C1.21777 26 0 24.7522 0 23.2143V6.5C0 4.96205 1.21777 3.71429 2.71875 3.71429H7.70312L8.3998 1.80491C8.79629 0.719643 9.81016 0 10.943 0H18.0514C19.1842 0 20.198 0.719643 20.5945 1.80491L21.2969 3.71429H26.2812C27.7822 3.71429 29 4.96205 29 6.5ZM21.2969 14.8571C21.2969 11.0152 18.2496 7.89286 14.5 7.89286C10.7504 7.89286 7.70312 11.0152 7.70312 14.8571C7.70312 18.6991 10.7504 21.8214 14.5 21.8214C18.2496 21.8214 21.2969 18.6991 21.2969 14.8571ZM19.4844 14.8571C19.4844 17.6719 17.2471 19.9643 14.5 19.9643C11.7529 19.9643 9.51562 17.6719 9.51562 14.8571C9.51562 12.0424 11.7529 9.75 14.5 9.75C17.2471 9.75 19.4844 12.0424 19.4844 14.8571Z" fill="#EEEEEE"/>
</svg>
