<svg width="39" height="26" viewBox="0 0 39 26" fill="none" xmlns="http://www.w3.org/2000/svg">
<path d="M1.01098 0.799998H22.107C22.371 0.799998 22.599 0.895998 22.791 1.088C22.983 1.28 23.079 1.508 23.079 1.772V7.568C23.079 7.832 22.983 8.06 22.791 8.252C22.599 8.444 22.371 8.54 22.107 8.54H16.131V25.028C16.131 25.292 16.035 25.52 15.843 25.712C15.651 25.904 15.423 26 15.159 26H7.95898C7.69498 26 7.46698 25.904 7.27498 25.712C7.08298 25.52 6.98698 25.292 6.98698 25.028V8.54H1.01098C0.746985 8.54 0.518984 8.444 0.326984 8.252C0.134984 8.06 0.0389844 7.832 0.0389844 7.568V1.772C0.0389844 1.508 0.134984 1.28 0.326984 1.088C0.518984 0.895998 0.746985 0.799998 1.01098 0.799998ZM33.966 16.34V19.42C33.966 20.3533 34.3673 20.82 35.17 20.82H37.718C37.9233 20.82 38.1007 20.8947 38.25 21.044C38.3993 21.1933 38.474 21.3707 38.474 21.576V25.244C38.474 25.4493 38.3993 25.6267 38.25 25.776C38.1007 25.9253 37.9233 26 37.718 26H34.554C29.8873 26 27.554 23.9933 27.554 19.98V16.34H25.342C25.1367 16.34 24.9593 16.2653 24.81 16.116C24.6607 15.9667 24.586 15.7893 24.586 15.584V12.196C24.586 11.9907 24.6607 11.8133 24.81 11.664C24.9593 11.5147 25.1367 11.44 25.342 11.44H27.554V6.876C27.554 6.67067 27.6287 6.49333 27.778 6.344C27.9273 6.19467 28.1047 6.12 28.31 6.12H33.21C33.4153 6.12 33.5927 6.19467 33.742 6.344C33.8913 6.49333 33.966 6.67067 33.966 6.876V11.44H37.494C37.6993 11.44 37.8767 11.5147 38.026 11.664C38.1753 11.8133 38.25 11.9907 38.25 12.196V15.584C38.25 15.7893 38.1753 15.9667 38.026 16.116C37.8767 16.2653 37.6993 16.34 37.494 16.34H33.966Z" fill="#EEEEEE"/>
</svg>
