<svg width="42" height="26" viewBox="0 0 42 26" fill="none" xmlns="http://www.w3.org/2000/svg">
<path d="M0 4.33581C0 1.94517 1.91741 0 4.27392 0H24.0335C26.39 0 28.3074 1.94517 28.3074 4.33581V21.6642C28.3074 24.0548 26.39 26 24.0335 26H4.27392C1.91741 26 0 24.0548 0 21.6642V4.33581ZM40.873 2.42776C41.5682 2.8064 42 3.5414 42 4.33581V21.6642C42 22.466 41.5682 23.1936 40.873 23.5722C40.1777 23.9509 39.3361 23.9138 38.6775 23.4609L31.3811 19.1251L30.437 18.4792V17.321V8.67162V7.51342L31.3811 6.8675L38.6775 2.5317C39.3288 2.10108 40.1704 2.04911 40.873 2.42776Z" fill="#EEEEEE"/>
</svg>
